<svg width="350" height="350" viewBox="0 0 350 350" fill="none" xmlns="http://www.w3.org/2000/svg">
<path d="M299.716 170.627C299.716 240.136 243.368 296.483 173.86 296.483C104.352 296.483 48.0039 240.136 48.0039 170.627C48.0039 101.118 104.352 44.7713 173.86 44.7713C243.368 44.7713 299.716 101.118 299.716 170.627Z" fill="#20495D"/>
<path d="M145.099 319.139C143.029 316.674 139.58 315.682 136.372 315.944C133.164 316.207 130.6 317.639 127.789 319.208C125.341 320.573 124.499 322.796 121.568 323.814L119.116 324.531C119.421 324.67 120.678 325.325 121.012 325.37C127.653 326.277 134.394 325.958 141.089 325.636C142.931 325.548 145.091 325.274 145.991 323.665C146.791 322.236 146.151 320.393 145.099 319.139Z" fill="#1C2B30"/>
<path d="M271.7 58.5914C271.7 77.4193 256.437 92.6821 237.61 92.6821C218.782 92.6821 203.519 77.4193 203.519 58.5914C203.519 39.7635 218.782 24.5014 237.61 24.5014C256.437 24.5014 271.7 39.7635 271.7 58.5914Z" fill="#199192"/>
<path d="M268.59 58.5914C268.59 75.7015 254.719 89.572 237.61 89.572C220.5 89.572 206.629 75.7015 206.629 58.5914C206.629 41.4813 220.5 27.6115 237.61 27.6115C254.719 27.6115 268.59 41.4813 268.59 58.5914Z" fill="#F8F7D4"/>
<path d="M266.832 68.8828C267.243 67.7166 267.584 66.5189 267.855 65.2939H264.825V43.7787C263.808 41.9139 262.6 40.1695 261.236 38.5616V65.2939H218.707V51.6558H255.673V33.4299C254.531 32.6088 253.334 31.8626 252.084 31.2004V48.0669H227.859V29.1865C226.627 29.5946 225.427 30.072 224.27 30.625V48.0669H215.118V59.5511H206.654C206.691 60.7663 206.792 61.9647 206.965 63.14H215.118V79.884C216.228 81.0558 217.427 82.1415 218.707 83.1292V68.8828H266.832Z" fill="#1C2B30"/>
<path d="M250.962 69.3553L237.693 55.3119L224.424 69.3553H228.479V83.0662H246.907V69.3553H250.962Z" fill="#20495D"/>
<path d="M243.902 39.8811C243.902 43.3762 237.574 49.4424 237.574 49.4424C237.574 49.4424 231.245 43.3762 231.245 39.8811C231.245 36.386 234.079 33.5531 237.574 33.5531C241.068 33.5531 243.902 36.386 243.902 39.8811Z" fill="#199192"/>
<path d="M237.609 42.6237C239.261 42.6237 240.599 41.2846 240.599 39.6333C240.599 37.9813 239.261 36.6422 237.609 36.6422C235.957 36.6422 234.618 37.9813 234.618 39.6333C234.618 41.2846 235.957 42.6237 237.609 42.6237Z" fill="#1C2B30"/>
<path d="M155.714 102.188C156.477 101.672 157.244 100.89 157.121 99.9768C156.964 98.8302 155.585 98.3584 154.443 98.168C146.686 96.8772 138.713 97.4022 130.98 98.8302C123.247 100.259 115.71 102.577 108.194 104.889C106.902 105.287 105.366 105.974 105.276 107.323C105.223 108.128 105.768 108.881 106.459 109.296C107.151 109.711 107.969 109.851 108.769 109.955C113.564 110.58 118.432 110.213 123.234 109.658C132.008 108.644 140.71 107 149.25 104.745C151.501 104.15 153.786 103.494 155.714 102.188Z" fill="#1C2B30"/>
<path d="M230.621 141.776C230.228 135.358 229.391 128.876 230.468 122.537C226.487 122.102 222.505 121.666 218.524 121.231C217.64 125.427 216.586 129.588 215.369 133.699C215.075 133.097 214.788 132.49 214.522 131.873C212.897 128.101 211.868 124.101 210.399 120.266C208.93 116.43 206.944 112.667 203.818 110.003C202.67 109.024 201.178 108.172 199.72 108.557C198.79 108.802 198.058 109.513 197.451 110.258C195.745 112.355 194.692 114.91 193.929 117.503C192.709 121.65 192.181 126.097 193.184 130.301C195.122 138.421 202.231 144.138 206.445 151.344C207.595 153.313 208.748 154.776 209.831 156.782C211.745 160.491 211.548 161.232 212.583 162.884C214.555 166.031 219.363 166.909 222.991 166.113C226.297 165.388 226.668 163.74 228.129 160.687C230.908 154.888 231.015 148.194 230.621 141.776Z" fill="#A5C0BA"/>
<path d="M201.631 149.055C203.58 138.915 204.372 128.533 203.675 118.232C205.14 122.308 206.617 126.439 207.019 130.752C207.623 137.238 205.653 143.93 201.631 149.055Z" fill="#1C2B30"/>
<path d="M219.295 125.964C220.416 126.729 221.75 127.177 223.105 127.247C224.784 127.333 226.452 126.844 227.959 126.1C228.866 125.653 229.791 125.034 230.101 124.072C230.313 123.411 230.198 122.696 230.082 122.012C229.902 120.952 229.722 119.892 229.542 118.831C229.48 118.472 229.412 118.095 229.18 117.814C228.868 117.434 228.341 117.322 227.854 117.254C225.883 116.979 223.866 117.039 221.914 117.431C220.676 117.679 219.33 118.171 218.787 119.312C218.536 119.838 218.494 120.435 218.457 121.016C218.395 121.958 218.333 122.901 218.273 123.843C218.249 124.193 218.228 124.553 218.34 124.885C218.497 125.348 218.891 125.688 219.295 125.964Z" fill="#1C2B30"/>
<path d="M223.293 105.603C223.475 105.679 223.682 105.614 223.868 105.548C225.095 105.115 226.322 104.682 227.548 104.249C226.139 101.959 224.457 99.8375 222.549 97.9433C222.68 100.239 222.811 102.534 222.943 104.829C222.96 105.128 223.017 105.487 223.293 105.603Z" fill="#1C2B30"/>
<path d="M222.061 114.899H211.484C210.86 114.899 210.354 114.394 210.354 113.77V92.4798C210.354 91.8561 210.86 91.35 211.484 91.35H222.061C222.685 91.35 223.191 91.8561 223.191 92.4798V113.77C223.191 114.394 222.685 114.899 222.061 114.899Z" fill="#A5C0BA"/>
<path d="M211.532 113.358C211.828 113.922 212.58 114.02 213.216 114.031C215.655 114.071 218.09 113.853 220.519 113.635C220.786 113.611 221.069 113.581 221.277 113.412C221.509 113.225 221.591 112.914 221.656 112.623C222.599 108.452 222.835 104.122 222.352 99.8718C219.11 99.5603 215.868 99.2488 212.626 98.9366C212.208 98.8967 211.731 98.875 211.428 99.1676C211.14 99.4455 211.128 99.897 211.137 100.297C211.22 104.376 211.303 108.455 211.387 112.534C211.393 112.815 211.401 113.109 211.532 113.358Z" fill="#1C2B30"/>
<path d="M228.544 117.279C228.511 113.984 228.455 108.378 228.424 105.323C228.409 103.742 227.188 103.024 225.81 102.666C224.581 102.347 211.473 99.6394 211.478 99.6128C211.364 100.281 211.631 100.968 212.047 101.503C212.463 102.038 213.016 102.446 213.562 102.847C212.946 103.29 212.322 103.739 211.835 104.32C211.348 104.902 211.005 105.641 211.049 106.399C211.094 107.155 211.594 107.908 212.329 108.099C211.879 108.681 211.412 109.308 211.353 110.041C211.295 110.774 211.848 111.602 212.581 111.54C212.311 112.421 212.169 113.341 212.161 114.262C213.944 115.058 215.286 116.773 215.629 118.696C216.08 118.69 216.482 118.368 216.698 117.972C216.714 117.942 216.723 117.91 216.737 117.88C217.842 118.899 219.034 119.819 219.902 121.064C222.809 121.502 225.862 121.183 228.519 119.963C228.557 119.069 228.553 118.167 228.544 117.279Z" fill="#1C2B30"/>
<path d="M94.8857 111.86C90.3336 116.819 88.6774 123.8 88.2588 130.519C87.6484 140.312 89.2997 150.109 91.5306 159.664C93.1714 166.693 95.1531 173.711 98.532 180.088C101.911 186.466 106.798 192.216 113.166 195.611C122.851 200.775 134.616 199.925 145.334 197.561C156.052 195.198 166.596 191.446 177.569 191.211C181.285 191.132 185.651 191.168 187.86 188.18C189.365 186.143 189.278 183.38 189.113 180.853C188.528 171.881 187.788 162.919 186.894 153.972C186.015 145.184 184.975 136.351 182.378 127.909C179.781 119.467 175.524 111.362 169.026 105.38C165.847 102.454 162.103 100.044 157.926 98.9401C153.571 97.7886 148.977 98.1001 144.492 98.5229C134.809 99.4343 125.17 100.823 115.623 102.682C108.071 104.154 100.089 106.191 94.8857 111.86Z" fill="#199192"/>
<path d="M88.942 77.0616L91.028 102.511C91.2989 105.814 94.2487 108.205 97.4764 107.736L159.26 98.784C162.233 98.3528 164.359 95.6389 164.108 92.5967L162.161 69.0753C161.894 65.8434 159.056 63.4725 155.885 63.8323L93.9617 70.8575C90.9125 71.2033 88.6872 73.9536 88.942 77.0616Z" fill="#1C2B30"/>
<path d="M92.9404 77.8484L94.9571 102.052C95.2189 105.193 98.0707 107.467 101.191 107.022L160.926 98.5068C163.8 98.0973 165.856 95.5164 165.613 92.6226L163.731 70.2527C163.472 67.179 160.728 64.9236 157.663 65.2659L97.7928 71.9474C94.8451 72.2764 92.694 74.8916 92.9404 77.8484Z" fill="#A5C0BA"/>
<path d="M159.328 106.947C145.506 107.752 131.772 110.06 118.445 113.814C117.584 114.056 117.291 115.149 117.922 115.783C118.889 116.753 119.8 118.016 120.115 118.464C128.236 130.026 128.043 145.468 128.463 158.977C128.809 170.088 128.413 181.204 128.008 192.308C127.954 193.771 127.994 195.479 129.165 196.355C129.968 196.955 131.054 196.953 132.055 196.921C151.208 196.31 170.309 194.086 189.09 190.279C190.073 164.439 187.86 141.527 179.809 122.327C178.734 119.764 171.233 109.892 168.871 108.429C166.089 106.705 162.596 106.757 159.328 106.947Z" fill="#1C2B30"/>
<path d="M118.488 124.421C117.361 121.533 115.538 118.299 113.626 115.858C111.714 113.418 109.099 111.419 106.07 110.764C100.796 109.626 95.2525 112.927 92.5967 117.623C95.9336 114.723 100.893 114.111 105.097 115.478C109.301 116.846 112.773 119.976 115.222 123.656C117.671 127.337 119.183 131.559 120.398 135.809C125.935 155.181 125.698 175.724 124.09 195.807C127.136 171.742 127.301 147.02 118.488 124.421Z" fill="#1C2B30"/>
<path d="M201.6 189.175H148.925V177.975H201.6V189.175Z" fill="#1C2B30"/>
<path d="M203.571 110.284C203.307 109.312 202.989 108.308 202.287 107.587C200.826 106.087 198.411 106.371 196.332 106.13C192.482 105.683 189.169 103.064 186.971 99.855C179.384 103.318 170.541 103.986 163.744 98.5166C163.031 99.1823 162.283 99.8088 161.506 100.39C157.506 103.383 152.798 105.302 148.006 106.716C146.34 107.207 144.565 107.694 143.376 108.961C141.287 111.185 141.867 114.708 142.485 117.695C146.467 136.933 146.297 157.016 142.027 176.191C141.324 179.348 143.423 182.438 146.604 183.023C165.752 186.542 185.689 185.741 204.483 180.655C198.689 157.778 209.763 133.056 203.571 110.284Z" fill="#A5C0BA"/>
<path d="M176.08 125.637C171.888 126.982 167.425 127.48 163.04 127.095C163.036 125.396 163.031 123.697 163.026 121.999C167.357 121.639 171.67 121.08 175.949 120.324C175.993 122.095 176.037 123.866 176.08 125.637Z" fill="white"/>
<path d="M175.972 103.354C179.289 106.9 179.381 112.291 179.301 117.146C178.915 140.651 179.063 164.165 179.746 187.663C181.842 187.484 183.94 187.305 186.037 187.126C185.539 165.049 185.041 142.972 184.544 120.896C184.409 114.895 184.263 108.821 182.647 103.041C180.422 103.145 178.197 103.249 175.972 103.354Z" fill="#1C2B30"/>
<path d="M183.177 158.514C182.598 146.409 181.999 133.891 182.937 121.487C183.45 114.693 182.122 109.357 180.612 103.833C180.377 103.886 180.141 103.93 179.906 103.972C181.405 109.453 182.727 114.74 182.221 121.433C181.28 133.881 181.88 146.421 182.46 158.548C182.647 162.448 182.84 166.48 182.98 170.468C183.157 175.494 183.339 180.69 182.618 185.737C182.59 185.933 182.727 186.115 182.923 186.143C182.939 186.145 182.957 186.147 182.974 186.147C183.149 186.147 183.303 186.018 183.329 185.838C184.058 180.729 183.875 175.5 183.698 170.442C183.557 166.45 183.364 162.415 183.177 158.514Z" fill="#A5C0BA"/>
<path d="M161.672 100.175C165.579 103.22 170.42 105.049 175.364 105.349C180.308 105.648 185.334 104.416 189.58 101.864C188.553 100.988 187.756 99.8438 187.292 98.5768C183.66 100.174 179.694 101.206 175.741 100.879C171.786 100.552 167.847 98.7336 165.532 95.5115C164.685 97.3686 163.338 98.9954 161.672 100.175Z" fill="#1C2B30"/>
<path d="M179.308 243.43C178.032 243.43 173.159 243.43 171.884 243.43C162.475 243.43 154.847 259.236 154.847 278.734C154.847 298.231 162.475 314.037 171.884 314.037C173.159 314.037 178.032 314.037 179.308 314.037C188.716 314.037 196.344 298.231 196.344 278.734C196.344 259.236 188.716 243.43 179.308 243.43Z" fill="#1C2B30"/>
<path d="M176.318 278.734C176.318 292.473 172.759 303.611 168.37 303.611C163.98 303.611 160.421 292.473 160.421 278.734C160.421 264.994 163.98 253.856 168.37 253.856C172.759 253.856 176.318 264.994 176.318 278.734Z" fill="#A5C0BA"/>
<path d="M173.231 273.791C173.231 285.297 170.251 294.624 166.575 294.624C162.899 294.624 159.919 285.297 159.919 273.791C159.919 262.286 162.899 252.959 166.575 252.959C170.251 252.959 173.231 262.286 173.231 273.791Z" fill="#1C2B30"/>
<path d="M227.79 211.62C220.777 202.772 210.288 196.757 199.109 195.174C187.93 193.591 176.183 196.456 166.988 203.009C163.684 205.365 160.627 208.281 159.011 212.003C156.638 217.468 157.697 223.74 158.796 229.594C161.703 245.069 164.608 260.544 167.515 276.019C167.852 277.818 168.219 279.685 169.306 281.158C170.733 283.09 173.139 284.003 175.449 284.666C192.626 289.597 210.957 286.045 228.467 282.471C232 281.749 235.893 280.797 237.909 277.808C239.013 276.171 239.37 274.156 239.647 272.203C241.047 262.327 241.053 252.255 239.665 242.377C238.117 231.364 234.699 220.336 227.79 211.62Z" fill="#1C2B30"/>
<path d="M169.55 229.743C167.03 223.456 163.379 215.569 156.375 213.638C150.468 212.01 144.038 215.103 140.127 219.819C136.214 224.535 134.357 230.594 132.926 236.552C129.094 252.514 129.908 269.634 135.383 285.11C149.549 286.683 160.983 287.543 175.848 286.924C176.746 286.886 176.814 270.691 176.784 269.13C176.669 263.113 176.105 257.106 175.104 251.171C173.924 244.171 172.395 236.891 169.722 230.173C169.665 230.031 169.609 229.887 169.55 229.743Z" fill="#199192"/>
<path d="M169.374 233.965C172.509 241.766 172.43 250.563 170.661 258.782C168.89 267.002 165.518 274.775 162.165 282.485C161.603 283.778 160.56 285.323 159.2 284.955C158.187 284.682 157.774 283.497 157.517 282.48C155.595 274.863 153.665 267.205 152.984 259.379C152.303 251.551 152.92 243.479 155.938 236.225C156.916 233.871 158.223 231.527 160.343 230.112C162.464 228.696 165.572 228.497 167.422 230.252L169.374 233.965Z" fill="#1C2B30"/>
<path d="M184.919 283.429C178.968 282.771 172.437 281.824 168.485 277.325C167.718 279.784 168.802 282.535 170.615 284.367C172.429 286.198 174.861 287.27 177.281 288.156C194.833 294.581 214.234 293.251 232.69 290.295C233.596 287.645 230.601 291.112 231.507 288.463C215.241 293.234 201.768 285.293 184.919 283.429Z" fill="#199192"/>
<path d="M119.833 290.168C128.908 296.664 140.569 299.429 151.236 296.149C141.366 291.497 130.67 288.889 119.833 290.168Z" fill="#1C2B30"/>
<path d="M144.878 305.329C145.368 300.154 145.857 294.979 146.346 289.805C139.839 290.102 133.3 289.699 126.877 288.606C126.501 293.385 125.829 298.14 124.866 302.837C131.537 303.668 138.207 304.498 144.878 305.329Z" fill="white"/>
<path d="M257.919 229.691C253.884 220.116 251.549 209.843 250.242 199.516C248.696 187.306 248.54 174.969 248.387 162.662C239.014 161.664 229.454 162.448 220.368 164.961C226.579 187.97 234.089 211.839 247.583 232.626C251.055 231.825 254.498 230.766 257.919 229.691Z" fill="#1C2B30"/>
<path d="M137.966 297.466C140.155 297.828 142.295 298.826 143.717 300.528C146.166 303.459 146.027 307.711 145.543 311.499C145.06 315.288 144.404 319.35 146.13 322.757C137.387 322.727 128.642 323.123 119.938 323.946C119.035 317.778 119.405 311.185 122.488 305.767C125.57 300.348 131.816 296.449 137.966 297.466Z" fill="#20495D"/>
<path d="M135.641 296.766C134.555 296.88 133.377 297.217 132.793 298.139C132.48 298.633 132.383 299.231 132.312 299.811C131.809 303.909 132.255 308.12 133.603 312.023C133.809 312.618 134.087 313.263 134.661 313.521C135.039 313.69 135.472 313.655 135.885 313.631C138.645 313.465 141.44 313.9 144.021 314.894C143.731 310.818 143.873 306.711 144.445 302.665C144.6 301.572 144.766 300.372 144.182 299.435C143.835 298.878 143.268 298.497 142.693 298.182C140.558 297.012 138.062 296.511 135.641 296.766Z" fill="#199192"/>
<path d="M123.693 306.986C124.284 306.272 125.112 305.584 126.029 305.721C126.792 305.835 127.357 306.496 127.72 307.178C128.458 308.564 128.655 310.162 129.031 311.685C129.408 313.209 130.049 314.784 131.356 315.652C128.96 317.608 126.103 318.995 123.083 319.667C122.493 319.798 121.881 319.903 121.287 319.793C120.693 319.683 120.112 319.32 119.895 318.756C119.716 318.289 119.806 317.766 119.897 317.274C120.576 313.639 121.334 309.833 123.693 306.986Z" fill="#A5C0BA"/>
<path d="M146.806 319.235C146.68 316.462 146.004 313.46 143.832 311.73C141.271 309.692 137.468 310.136 134.539 311.597C132.299 312.714 130.353 314.329 128.256 315.696C126.16 317.062 123.798 318.212 121.295 318.212C120.499 318.212 119.622 318.117 118.987 318.596C118.269 319.138 118.182 320.164 118.158 321.063C118.13 322.069 118.133 323.169 118.766 323.95C119.441 324.783 120.612 324.983 121.677 325.098C128.487 325.83 135.362 325.383 142.195 324.935C143.195 324.87 144.245 324.789 145.086 324.242C146.638 323.234 146.891 321.084 146.806 319.235Z" fill="#1C2B30"/>
<path d="M193.328 68.8548C195.531 76.4974 194.085 85.1067 189.507 91.6111C188.546 92.9754 187.409 94.2872 185.898 94.9949C183.103 96.3032 179.828 95.2553 176.929 94.1976C173.666 93.0076 170.276 91.7357 167.894 89.208C165.65 86.8252 164.555 83.5723 164.013 80.3446C163.366 76.4904 163.476 72.3142 165.482 68.9612C167.982 64.7836 173.023 62.664 177.886 62.4232C182.748 62.1824 187.533 63.5306 192.214 64.8662L193.328 68.8548Z" fill="#1C2B30"/>
<path d="M187.725 100.876C187.359 100.416 187.013 99.9397 186.697 99.4497C184.506 96.0568 183.364 92.1109 182.25 88.2287C178.18 88.2903 174.11 88.3512 170.04 88.4121C169.184 91.6741 167.415 94.6239 165.128 97.1187C171.378 101.955 180.097 102.453 187.725 100.876Z" fill="#1C2B30"/>
<path d="M192.123 77.6825C192.096 77.5383 192.067 77.3941 192.035 77.2513C191.799 76.1782 191.311 74.9049 191.858 73.8395C192.71 72.1798 192.576 71.7759 191.468 68.3424L190.274 65.6705C187.494 62.657 183.287 61.2276 179.187 61.1828C175.087 61.1387 171.069 62.356 167.3 63.9695C166.044 64.5071 164.684 65.2239 164.263 66.5238C164.025 67.2623 164.14 68.0624 164.264 68.8289C164.758 71.8746 165.36 74.9021 165.962 77.9282C166.447 80.367 166.945 82.8436 168.097 85.0479C169.557 87.8437 171.964 90.006 174.32 92.1039C175.279 92.9579 176.258 93.8245 177.43 94.3495C179.666 95.3512 182.363 94.941 184.475 93.6992C186.588 92.4574 188.177 90.4771 189.4 88.354C190.71 86.079 191.652 83.5933 192.179 81.0222C192.404 79.9218 192.331 78.7822 192.123 77.6825Z" fill="#1C2B30"/>
<path d="M174.308 74.788C175.82 73.2375 177.753 72.5186 179.817 72.6866C179.894 72.3688 180.05 72.0699 180.274 71.8319C177.892 71.5428 175.423 72.5844 173.853 74.3995C174.031 74.494 174.179 74.6326 174.308 74.788Z" fill="#20495D"/>
<path d="M177.764 78.0892C177.548 78.1109 177.316 78.1228 177.129 78.0143C176.956 77.9149 176.851 77.7294 176.784 77.5418C176.651 77.1729 176.64 76.7613 176.751 76.3861C176.861 76.0186 177.094 75.6791 177.43 75.4929C177.765 75.3074 178.204 75.2955 178.523 75.5083C178.915 75.7694 179.046 76.2811 179.1 76.7487C179.125 76.9671 179.139 77.1953 179.06 77.3997C178.968 77.6405 178.754 77.8204 178.517 77.9233C178.281 78.0269 178.021 78.0633 177.764 78.0892Z" fill="#20495D"/>
<path d="M178.621 76.5485C178.495 76.3287 178.262 76.1306 178.013 76.1803C177.75 76.2328 177.615 76.5296 177.573 76.7949C177.544 76.9832 177.54 77.1799 177.601 77.3605C177.662 77.5411 177.796 77.7035 177.976 77.7658C178.258 77.8631 178.585 77.6776 178.705 77.4053C178.825 77.133 178.769 76.8068 178.621 76.5485Z" fill="#1C2B30"/>
<path d="M177.481 76.7648C177.573 76.7704 177.66 76.7193 177.722 76.6514C177.842 76.5198 177.871 76.2867 177.733 76.1733C177.651 76.1054 177.526 76.0991 177.431 76.1481C177.336 76.1971 177.271 76.2951 177.251 76.4001C177.22 76.5597 177.32 76.7536 177.481 76.7648Z" fill="white"/>
<path d="M189.188 72.6362C190.014 72.6362 190.735 73.1255 191.096 73.8213C191.1 73.8283 191.106 73.8346 191.11 73.8423C191.263 73.7856 191.367 73.6029 191.35 73.4307C191.33 73.2235 191.192 73.0478 191.05 72.8952C190.76 72.5809 190.426 72.3002 190.039 72.1189C189.652 71.9376 189.206 71.8606 188.79 71.9558C188.515 72.0181 188.243 72.1693 188.117 72.422C188.038 72.5816 188.047 72.779 188.124 72.9351C188.441 72.7503 188.802 72.6362 189.188 72.6362Z" fill="#20495D"/>
<path d="M188.974 76.4064C188.945 76.1369 189.048 75.8681 189.198 75.6427C189.411 75.3214 189.781 75.0484 190.157 75.1331C190.41 75.1905 190.607 75.4019 190.711 75.6406C190.816 75.8786 190.842 76.1425 190.861 76.4022C190.884 76.7144 190.879 77.0784 190.635 77.2751C190.428 77.4417 190.126 77.4172 189.873 77.3353C189.439 77.1953 189.024 76.8593 188.974 76.4064Z" fill="#20495D"/>
<path d="M190.345 75.9493C190.243 75.8296 190.085 75.7253 189.936 75.7771C189.821 75.817 189.755 75.9353 189.708 76.048C189.638 76.2202 189.59 76.4085 189.619 76.5933C189.648 76.7774 189.768 76.9559 189.946 77.0126C190.189 77.0896 190.462 76.9034 190.534 76.6591C190.606 76.4141 190.51 76.1439 190.345 75.9493Z" fill="#1C2B30"/>
<path d="M189.732 76.1138C189.801 76.1187 189.868 76.0795 189.915 76.0284C190.006 75.9283 190.028 75.7512 189.923 75.6651C189.86 75.6133 189.766 75.6084 189.694 75.6455C189.622 75.6826 189.572 75.7575 189.557 75.8373C189.533 75.9584 189.609 76.1054 189.732 76.1138Z" fill="white"/>
<path d="M190.295 77.5558C188.042 76.2566 183.952 76.8124 181.517 77.2268C179.083 77.6412 176.161 79.0993 173.964 80.227C173.351 80.542 172.704 80.9214 172.442 81.5584C172.29 81.928 172.288 82.3389 172.291 82.7379C172.308 84.7805 172.402 86.8224 172.572 88.858C172.628 89.5216 172.696 90.1985 172.974 90.8033C173.258 91.4235 173.746 91.9261 174.259 92.3769C175.046 93.0678 175.925 93.674 176.911 94.0247C178.499 94.5903 182.803 95.5164 184.374 94.9018C185.944 94.2879 185.798 94.2242 186.945 92.988C189.219 90.538 190.991 88.0257 192.209 84.9128C192.748 83.5373 193.353 81.0747 192.807 80.3075C192.396 79.7279 190.911 77.9107 190.295 77.5558Z" fill="#1C2B30"/>
<path d="M183.19 77.7504C179.698 78.0143 176.317 79.4605 173.681 81.7621C174.02 85.1207 174.101 88.1118 174.542 91.4704C174.945 92.2103 175.8 93.3898 176.38 93.8252C178.21 95.1965 180.02 95.5143 182.28 95.8587C185.84 96.4026 188.226 94.1017 190.175 91.0735C192.126 88.046 192.968 83.7095 193.346 80.1276C190.163 77.5705 187.261 77.4424 183.19 77.7504Z" fill="white"/>
<path d="M174.202 82.8009C171.417 81.3127 169.568 80.2718 167.779 79.2645L166.674 78.6429L167.025 78.0171L168.132 78.6394C169.917 79.6446 171.762 80.6834 174.54 82.1681L174.202 82.8009Z" fill="white"/>
<path d="M175.005 90.2006L168.007 86.7909L168.321 86.1455L175.319 89.5545L175.005 90.2006Z" fill="white"/>
<path d="M171.334 73.4286C174.653 70.7665 185.599 71.3951 192.359 70.8862C192.221 70.2191 191.892 69.6577 191.468 68.3424L190.274 65.6705C187.494 62.657 183.287 61.2276 179.187 61.1828C175.087 61.1387 171.069 62.356 167.3 63.9695C166.044 64.5071 164.684 65.2239 164.263 66.5238C164.025 67.2623 164.14 68.0624 164.264 68.8289C164.758 71.8746 165.36 74.9021 165.962 77.9282C166.447 80.367 166.945 82.8436 168.097 85.0479C168.542 85.9005 169.084 86.6894 169.676 87.4405C168.773 81.9399 168.01 76.7522 171.334 73.4286Z" fill="#1C2B30"/>
<path d="M170.904 52.5238C166.996 53.5892 163.268 55.636 160.726 58.7888C158.124 62.0137 156.926 66.1703 156.475 70.2884C156.065 74.0271 156.231 77.8764 157.424 81.4429C158.698 85.2495 161.212 88.7201 164.759 90.6388C165.36 90.9643 166.039 91.1687 166.717 91.0784C168.6 90.8292 168.973 88.9021 169.041 87.2942C169.192 83.6766 168.891 79.7076 168.073 75.9766C167.481 73.2802 169.448 70.6874 172.206 70.5586C179.672 70.2086 187.085 70.1337 194.588 69.5989C194.935 69.5737 195.31 69.5373 195.568 69.3042C195.875 69.027 195.915 68.5657 195.917 68.152C195.936 62.4638 192.384 57.0675 187.445 54.2458C182.505 51.4241 176.392 51.0279 170.904 52.5238Z" fill="#199192"/>
<path d="M166.137 91.2275C165.669 91.2275 165.241 91.0721 164.918 90.7844C164.769 90.6528 164.757 90.426 164.889 90.2776C165.021 90.1292 165.248 90.1173 165.395 90.2489C165.665 90.4883 165.995 90.524 166.23 90.5065C166.684 90.4764 167.154 90.2419 167.455 89.894C168.023 89.2353 168.185 88.3029 168.274 87.3936C168.534 84.763 168.328 82.131 167.663 79.5718C167.593 79.3016 167.518 79.0293 167.443 78.7549C166.925 76.8782 166.391 74.9378 167.156 73.1276C167.731 71.7668 169.042 70.6615 170.752 70.0945C172.249 69.5975 173.821 69.5394 175.341 69.4834L191.732 68.8807C193.13 68.8289 194.714 68.7708 196.026 68.1177C196.202 68.0302 196.419 68.1009 196.507 68.2787C196.595 68.4565 196.523 68.6721 196.345 68.7603C194.895 69.4827 193.229 69.5436 191.759 69.5975L175.368 70.2009C173.898 70.2548 172.378 70.3108 170.977 70.7756C169.464 71.2775 168.312 72.2365 167.817 73.4069C167.149 74.9875 167.65 76.8061 168.134 78.5645C168.211 78.8424 168.287 79.1182 168.358 79.3912C169.044 82.0323 169.256 84.749 168.989 87.4643C168.892 88.4415 168.699 89.5503 167.998 90.3623C167.569 90.8586 166.926 91.1806 166.276 91.2226C166.229 91.2254 166.183 91.2275 166.137 91.2275Z" fill="#A5C0BA"/>
<path d="M180.581 53.0656C174.054 51.6369 166.829 54.0687 162.494 59.1542C158.161 64.239 156.904 71.7584 159.349 77.9765C158.219 72.6789 159.321 66.9417 162.333 62.44C165.346 57.9376 170.229 54.7302 175.557 53.7537L180.581 53.0656Z" fill="#1C2B30"/>
<path d="M150.804 112.775C151.674 112.221 152.872 112.441 153.7 113.056C154.527 113.672 155.054 114.605 155.488 115.541C157.812 120.544 158.157 126.286 157.417 131.753C156.677 137.22 154.91 142.489 153.152 147.718C159.793 151.792 166.762 155.332 173.969 158.292C162.405 160.787 150.001 159.191 139.446 153.849C146.219 142.476 147.356 128.766 149.43 115.693C149.603 114.596 149.867 113.371 150.804 112.775Z" fill="#1C2B30"/>
<path d="M159.107 172.756C162.163 173.524 165.484 174.163 168.384 172.93C170.742 171.928 172.439 169.839 173.963 167.778C175.519 165.673 177.062 162.941 175.916 160.586C174.882 158.463 172.223 157.832 169.92 157.306C162.758 155.671 155.896 152.732 149.771 148.677C150.746 143.781 152.789 139.174 154.469 134.473C156.149 129.771 157.489 124.8 156.969 119.835C156.449 114.869 153.742 109.884 149.193 107.826C147.69 107.146 145.959 106.807 144.382 107.29C142.154 107.972 140.718 110.09 139.575 112.121C132.562 124.585 133.678 137.639 129.562 153.388C128.955 155.706 129.588 158.308 130.806 160.371C132.166 162.677 134.706 163.98 137.143 165.085C144.216 168.292 151.577 170.862 159.107 172.756Z" fill="#A5C0BA"/>
<path d="M167.62 167.934C167.383 169.364 167.478 170.988 168.479 172.035C169.151 172.738 170.115 173.061 171.039 173.361C171.863 173.627 172.725 173.897 173.579 173.758C174.468 173.614 175.227 173.043 175.877 172.42C177.521 170.843 178.711 168.8 179.274 166.593C179.591 165.349 179.696 163.967 179.086 162.837C178.505 161.762 177.346 161.085 176.147 160.841C174.124 160.43 171.956 161.158 170.422 162.541C168.888 163.923 167.959 165.897 167.62 167.934Z" fill="#1C2B30"/>
<path d="M131.507 304.109C133.629 302.989 135.985 302.179 138.418 302.1C140.852 302.023 143.37 302.734 145.124 304.318C145.703 304.84 146.051 305.718 146.1 306.528C146.115 306.761 145.826 306.876 145.657 306.714C143.725 304.857 141.094 303.664 138.328 303.787C135.357 303.92 132.507 305.176 130.292 307.04C129.728 306.692 129.669 305.889 129.994 305.334C130.319 304.779 130.918 304.42 131.507 304.109Z" fill="#1C2B30"/>
<path d="M131.642 306.599C133.764 305.479 136.119 304.669 138.552 304.59C140.986 304.512 143.505 305.224 145.259 306.808C145.837 307.33 146.186 308.208 146.236 309.018C146.25 309.251 145.961 309.366 145.792 309.204C143.86 307.347 141.229 306.154 138.463 306.277C135.491 306.41 132.642 307.666 130.427 309.529C129.863 309.182 129.803 308.379 130.129 307.824C130.453 307.269 131.053 306.909 131.642 306.599Z" fill="#1C2B30"/>
<path d="M130.71 311.002C132.484 309.02 135.073 307.819 137.726 307.624C140.379 307.43 143.074 308.216 145.276 309.709C145.687 309.987 146.1 310.314 146.281 310.776C146.462 311.238 146.31 311.865 145.848 312.044C143.751 310.513 141.183 309.639 138.588 309.573C135.993 309.506 133.384 310.249 131.212 311.671C131.018 311.799 130.761 311.932 130.574 311.795C130.328 311.616 130.507 311.229 130.71 311.002Z" fill="#1C2B30"/>
<path d="M184.581 186.264H161.288C156.477 187.071 150.238 184.722 146.71 187.743C141.168 192.489 139.978 203.957 140.854 210.752C141.012 211.978 141.312 213.248 142.192 214.203C143.981 216.151 147.279 216.049 150.107 216.056C155.317 216.068 160.521 217.042 165.295 218.897C168.137 220.002 171.162 221.452 174.165 220.761C176.427 220.24 178.114 218.606 179.658 217.048C183.273 213.398 186.92 209.656 189.13 205.208C191.34 200.759 191.938 195.422 189.412 191.108C188.275 189.167 186.576 187.556 184.581 186.264Z" fill="#A5C0BA"/>
<path d="M180.05 194.155C178.578 192.392 176.779 190.52 174.482 190.487C172.77 190.462 171.237 191.487 169.882 192.534C160.446 199.818 153.642 209.952 147.706 220.289C135.169 242.117 125.73 265.72 119.76 290.173C130.374 291.368 140.895 293.386 151.198 296.204C158.889 269.56 166.7 242.626 180.463 218.551C183.147 213.856 186.164 208.737 185.233 203.41C184.617 199.885 182.344 196.902 180.05 194.155Z" fill="#A5C0BA"/>
<path d="M141.969 213.868C143.297 215.68 145.766 216.431 147.983 216.069C150.201 215.708 152.168 214.377 153.698 212.731C155.228 211.086 156.375 209.129 157.51 207.189C153.417 211.263 147.741 213.702 141.969 213.868Z" fill="#1C2B30"/>
<path d="M272.217 188.367C270.605 183.158 268.865 177.731 265.019 173.866C259.865 168.686 252.029 167.384 244.73 167.046C230.407 166.382 215.725 168.489 202.938 174.977C198.537 177.21 194.297 180.034 191.414 184.038C187.755 189.121 186.639 195.588 186.222 201.837C184.776 223.56 190.537 245.036 192.986 266.669C193.716 273.119 193.95 280.301 189.881 285.358C188.628 286.915 186.897 288.801 187.785 290.591C188.439 291.908 190.144 292.22 191.607 292.364C212.996 294.463 235.173 294.535 255.265 286.907C266.616 282.598 277.507 275.372 282.863 264.475C286.608 256.859 287.34 248.042 286.401 239.607C285.461 231.172 282.939 223.004 280.429 214.896C277.692 206.053 274.954 197.21 272.217 188.367Z" fill="#199192"/>
<path d="M275.383 246.898C271.585 239.49 264.742 233.284 256.528 231.935C248.963 230.693 241.088 233.739 235.43 238.909C229.771 244.08 226.144 251.169 223.971 258.52C221.796 265.871 220.975 273.543 220.174 281.167C219.829 284.46 219.696 288.321 222.216 290.47C224.467 292.39 227.818 292.029 230.721 291.455C240.545 289.512 250.132 286.374 259.204 282.132C267.042 278.466 275.085 273.267 277.701 265.02C279.591 259.064 278.234 252.458 275.383 246.898Z" fill="#1C2B30"/>
<path d="M203.398 185.797C202.507 184.278 200.46 183.977 199.145 185.146C195.13 188.718 192.838 194.181 192.213 199.601C191.434 206.356 192.866 213.156 194.288 219.799C199.044 219.032 197.029 219.357 201.785 218.591C201.254 213.991 200.938 209.303 201.855 204.768C202.641 200.884 204.435 197.085 207.311 194.41C208.19 193.592 208.237 192.235 207.437 191.339C205.911 189.632 204.556 187.772 203.398 185.797Z" fill="white"/>
<path d="M262.856 180.598C262.776 181.642 262.589 182.678 262.298 183.683C262.067 184.479 262.288 185.34 262.899 185.9C266.472 189.172 269.189 193.375 270.693 197.982C271.4 198.202 272.152 197.604 272.373 196.897C272.595 196.19 272.435 195.426 272.272 194.703C271.187 189.881 268.212 183.966 264.673 179.952C264.06 179.255 262.927 179.672 262.856 180.598Z" fill="white"/>
<path d="M194.533 258.861C195.183 248.78 193.078 238.754 191.313 228.807C189.548 218.86 188.117 208.614 190.097 198.708C192.076 188.801 198.073 179.166 207.425 175.346C197.576 178.368 191.54 187.022 189.09 197.029C186.64 207.036 187.662 218.247 189.718 228.342C191.774 238.438 194.02 248.571 194.533 258.861Z" fill="#1C2B30"/>
<path d="M248.498 171.1C248.449 168.3 248.411 165.5 248.376 162.701C238.126 161.61 227.671 162.467 217.736 165.215C218.33 167.414 218.94 169.621 219.558 171.832C222.138 185.18 235.049 236.375 235.049 236.375L247.919 233.295L231.127 174.35C236.981 173.861 242.799 172.746 248.498 171.1Z" fill="#1C2B30"/>
<path d="M248.498 170.341C240.085 172.773 231.388 173.94 222.725 173.469C228.514 193.786 235.746 214.392 247.583 232.626C251.055 231.825 254.498 230.766 257.918 229.691C253.884 220.116 251.548 209.843 250.242 199.516C249.017 189.845 248.668 180.094 248.498 170.341Z" fill="#1C2B30"/>
<path d="M273.348 153.849C273.348 155.881 272.143 157.528 270.656 157.528C269.17 157.528 267.965 155.881 267.965 153.849C267.965 151.818 269.17 150.171 270.656 150.171C272.143 150.171 273.348 151.818 273.348 153.849Z" fill="#1C2B30"/>
<path d="M281.455 155.54C281.202 156.141 280.578 156.521 279.94 156.652C279.301 156.784 278.641 156.706 277.993 156.628C274.807 156.243 271.62 155.859 268.434 155.475C268.51 154.309 268.587 153.142 268.664 151.976C271.65 152.146 274.637 152.317 277.623 152.488C278.586 152.543 279.59 152.61 280.419 153.102C281.249 153.593 281.828 154.652 281.455 155.54Z" fill="#1C2B30"/>
<path d="M269.877 150.468C265.635 150.851 262.373 149.52 259.311 146.562C257.493 144.805 256.095 142.564 253.94 141.242C250.403 139.072 245.899 139.927 241.773 140.356C235.675 140.988 229.281 140.566 223.684 143.068C219.556 144.913 216.271 148.181 212.757 151.027C206.697 155.936 199.721 159.701 192.308 162.121C193.668 163.626 194.681 165.464 195.412 167.432C201.356 166.22 207.586 166.084 213.676 166.314C223.163 166.673 232.683 167.831 242.118 166.775C245.997 166.341 249.902 165.509 253.306 163.598C256.056 162.055 258.386 159.861 261.066 158.199C263.745 156.536 266.167 155.72 269.184 156.636C271.105 155.277 271.254 151.977 269.877 150.468Z" fill="#199192"/>
<path d="M214.035 154.878C214.408 154.804 214.772 154.666 215.083 154.447C216.618 153.357 216.259 150.847 217.544 149.47C215.016 151.4 212.488 153.329 209.961 155.259C211.19 154.641 212.686 155.149 214.035 154.878Z" fill="#1C2B30"/>
<path d="M201.446 172.396C202.207 172.052 202.623 171.199 202.4 170.394C202.204 169.683 202.149 168.932 202.247 168.2C202.363 167.348 202.679 166.52 202.672 165.661C202.663 164.412 201.978 163.276 201.25 162.261C200.714 161.515 200.108 160.767 199.27 160.388C198.01 159.818 196.545 160.206 195.219 160.601C194.359 160.858 193.369 161.241 193.136 162.107C193.027 162.509 193.113 162.936 193.229 163.335C193.697 164.932 194.671 166.377 195.976 167.411C196.787 168.053 197.799 168.65 198.003 169.665C198.152 170.411 197.789 171.182 197.259 171.727C196.727 172.271 196.043 172.634 195.383 173.011C190.004 176.075 185.522 180.53 181.729 185.422C181.63 185.55 181.535 185.684 181.446 185.823C181.435 185.839 181.419 185.852 181.408 185.869C181.191 186.19 181.013 186.562 181.043 186.948C181.094 187.606 181.732 188.077 182.373 188.231C182.848 188.345 183.457 188.271 183.661 187.828C183.802 187.521 183.691 187.165 183.616 186.836C183.543 186.512 183.514 186.18 183.519 185.849C188.42 180.132 194.586 175.502 201.446 172.396Z" fill="white"/>
<path d="M255.163 158.626C256.719 156.144 256.546 152.978 256.039 150.092C255.671 148 255.095 145.788 253.503 144.381C252.034 143.084 249.978 142.721 248.028 142.528C241.866 141.918 235.588 142.488 229.637 144.199C225.938 145.263 222.05 147.051 220.417 150.536C218.701 154.201 219.785 159.646 222.774 162.373C225.764 165.101 229.855 164.912 233.9 165.005C238.627 165.114 243.757 164.371 248.27 162.96C253.034 161.47 253.714 160.936 255.163 158.626Z" fill="white"/>
<path d="M249.711 143.625C251.673 145.606 252.813 148.282 253.386 151.012C253.959 153.74 254.004 156.549 254.047 159.337C255.704 155.371 255.707 150.744 254.056 146.777C253.677 145.866 253.199 144.968 252.454 144.322C251.708 143.676 250.65 143.322 249.711 143.625Z" fill="#1C2B30"/>
<path d="M270.342 159.345C270.825 159.517 271.354 159.37 271.865 159.396C275.83 159.592 279.093 159.265 282.32 160.788C282.116 160.887 282.004 161.578 282.131 161.765C282.498 162.183 283.282 161.911 283.448 161.382C283.615 160.852 283.296 160.266 282.841 159.95C282.384 159.634 281.52 159.214 280.974 159.114C277.782 158.521 274.889 158.238 271.697 157.645C270.856 157.38 270.59 156.291 270.747 155.424C270.903 154.557 271.337 153.738 271.347 152.857C271.365 151.433 270.039 150.194 268.649 150.126C268.302 150.109 268.041 150.45 268.164 150.774C268.854 152.587 268.668 154.718 267.688 156.391C267.503 156.707 267.6 157.111 267.924 157.28C268.774 157.723 269.352 158.992 270.342 159.345Z" fill="white"/>
<path d="M278.283 127.74C278.283 132.2 274.667 135.815 270.208 135.815C265.748 135.815 262.132 132.2 262.132 127.74C262.132 123.281 265.748 119.666 270.208 119.666C274.667 119.666 278.283 123.281 278.283 127.74Z" fill="white"/>
<path d="M269.65 152.604C269.304 152.604 268.999 152.353 268.943 152L267.341 142.033C267.15 140.839 267.252 139.605 267.638 138.462L270.694 129.395C270.82 129.021 271.229 128.818 271.603 128.944C271.979 129.071 272.181 129.478 272.054 129.854L268.998 138.921C268.687 139.844 268.604 140.841 268.758 141.805L270.36 151.773C270.423 152.164 270.157 152.532 269.765 152.595C269.726 152.601 269.688 152.604 269.65 152.604Z" fill="white"/>
<path d="M189.279 139.225C189.279 144.874 184.699 149.454 179.05 149.454C173.401 149.454 168.822 144.874 168.822 139.225C168.822 133.576 173.401 128.997 179.05 128.997C184.699 128.997 189.279 133.576 189.279 139.225Z" fill="white"/>
<path d="M197.412 163.031C197.088 163.031 196.793 162.809 196.715 162.48L193.59 149.375C193.266 148.017 192.377 146.855 191.152 146.187L180.202 140.214C179.853 140.024 179.725 139.588 179.915 139.24C180.105 138.892 180.543 138.763 180.888 138.953L191.84 144.927C193.422 145.789 194.568 147.289 194.986 149.042L198.111 162.147C198.203 162.532 197.965 162.919 197.58 163.011C197.524 163.024 197.468 163.031 197.412 163.031Z" fill="white"/>
<path d="M168.64 171.097C169.191 172.447 169.742 173.797 170.292 175.148C178.062 171.87 186.058 169.131 194.206 166.961C193.719 165.449 192.989 164.017 192.051 162.737C184.247 165.523 176.443 168.31 168.64 171.097Z" fill="#1C2B30"/>
<path d="M189.458 163.146C189.395 162.205 190.1 161.314 190.992 161.007C191.884 160.7 192.899 160.913 193.699 161.412C194.5 161.911 195.109 162.669 195.597 163.476C196.202 164.479 196.648 165.602 196.713 166.771C196.743 167.306 196.542 167.943 196.237 168.557C195.601 169.843 193.895 170.18 192.844 169.203C191.114 167.599 189.573 164.862 189.458 163.146Z" fill="#1C2B30"/>
<path d="M171.753 172.82C172.708 174.641 172.291 176.742 170.821 177.514C169.351 178.285 167.385 177.434 166.429 175.613C165.474 173.792 165.891 171.69 167.361 170.919C168.831 170.148 170.797 170.999 171.753 172.82Z" fill="#1C2B30"/>
<path d="M262.74 244.084C261.353 244.266 256.056 244.96 254.669 245.142C244.439 246.481 238.398 264.752 241.174 285.949C243.95 307.147 254.493 323.245 264.722 321.905C266.109 321.724 271.407 321.03 272.794 320.849C283.023 319.509 289.066 301.239 286.289 280.04C283.513 258.843 272.97 242.745 262.74 244.084Z" fill="#1C2B30"/>
<path d="M262.401 283.17C264.288 297.584 262.291 309.731 257.938 310.302C253.585 310.871 248.527 299.648 246.639 285.234C244.751 270.819 246.749 258.672 251.102 258.102C255.454 257.532 260.513 268.755 262.401 283.17Z" fill="#A5C0BA"/>
<path d="M278.697 245.572C275.624 241.308 271.655 237.581 266.86 235.428C256.978 230.99 247.7 234.712 242.968 244.163C239.664 250.762 236.83 259.557 237.257 266.993C237.733 275.307 237.916 284.675 239.734 292.8C255.504 290.953 278.134 287.225 291.966 282.064C290.004 269.616 286.067 255.795 278.697 245.572Z" fill="#199192"/>
<path d="M249.781 238.225C246.938 239.756 244.72 242.412 243.722 245.483C244.996 243.984 247.263 243.579 249.132 244.192C251 244.805 252.488 246.283 253.504 247.967C254.521 249.651 255.124 251.546 255.718 253.421C258.624 262.604 261.53 271.785 264.437 280.967C264.811 282.15 265.22 283.389 266.13 284.231C267.836 285.81 270.517 285.398 272.784 284.885C271.616 285.135 270.404 284.475 269.66 283.541C268.915 282.607 268.544 281.438 268.192 280.297C264.383 267.954 260.98 255.487 257.988 242.92C257.513 240.923 256.875 238.687 255.062 237.722C253.436 236.855 251.404 237.351 249.781 238.225Z" fill="#1C2B30"/>
<path d="M241.203 260.146C240.337 270.914 244.085 281.434 246.635 291.931C247.142 294.022 247.625 296.176 248.813 297.971C250 299.766 252.082 301.147 254.213 300.844C256.55 300.511 258.227 298.244 258.65 295.921C259.074 293.599 258.518 291.222 257.967 288.927C255.106 277.032 252.245 265.136 249.384 253.241C247.802 251.628 244.886 252.185 243.359 253.852C241.833 255.518 241.384 257.893 241.203 260.146Z" fill="#1C2B30"/>
<path d="M251.904 288.523C251.904 293.28 250.579 297.136 248.944 297.136C247.309 297.136 245.983 293.28 245.983 288.523C245.983 283.765 247.309 279.909 248.944 279.909C250.579 279.909 251.904 283.765 251.904 288.523Z" fill="#A5C0BA"/>
<path d="M254.473 298.04C254.883 298.539 255.65 298.639 256.247 298.391C256.843 298.143 257.282 297.611 257.573 297.035C258.495 295.211 258.101 293.025 257.643 291.034C255.069 279.863 251.1 269.02 249.13 257.727C248.966 256.789 248.8 255.809 248.233 255.043C247.666 254.277 246.56 253.817 245.733 254.29C245.164 254.615 244.874 255.294 244.841 255.947C244.807 256.6 244.991 257.243 245.168 257.873C247.04 264.517 248.493 271.278 249.517 278.104C250.959 278.477 251.884 279.861 252.536 281.201C254.716 285.682 255.353 290.896 254.314 295.77C254.15 296.54 253.973 297.432 254.473 298.04Z" fill="#A5C0BA"/>
<path d="M247.355 278.999C246.374 280.212 245.649 281.632 245.241 283.137C245.11 281.512 245.961 279.845 247.355 278.999Z" fill="#A5C0BA"/>
<path d="M190.534 170.328C190.034 168.853 189.171 165.055 187.783 164.347C186.053 163.465 184.031 163.367 182.129 163.26C180.113 163.145 178.055 162.884 176.059 163.33C174.558 163.666 173.361 164.324 172.35 165.483C171.274 166.719 170.673 167.674 170.736 169.312C170.798 170.949 173.496 173.801 175.134 173.863C174.65 174.093 174.511 174.756 174.692 175.26C174.873 175.764 175.285 176.145 175.682 176.504C176.566 177.304 177.449 178.105 178.333 178.905C178.981 179.491 179.675 180.102 180.533 180.269C181.627 180.482 182.717 179.926 183.642 179.306C185.3 178.194 187.162 177.413 188.381 175.832C189.84 173.938 191.302 172.592 190.534 170.328Z" fill="#1C2B30"/>
</svg>
