<svg width="400" height="395" viewBox="0 0 400 395" fill="none" xmlns="http://www.w3.org/2000/svg">
<path d="M37.7469 163.901C18.8078 207.988 45.3787 263.068 84.968 290.728C117.977 313.791 160.405 319.04 200.84 318.861C235.656 318.707 270.566 315.037 304.213 306.2C325.949 300.491 348.077 291.991 362.727 275.139C377.378 258.287 381.854 231.099 367.423 214.063C355.051 199.457 331.96 194.917 323.65 177.733C319.278 168.695 320.138 158.187 319.58 148.186C319.022 138.184 316.126 127.075 307.364 122.027C300.12 117.854 290.886 119.043 283.096 115.975C271.736 111.501 265.98 99.348 258.069 90.1374C242.653 72.1902 217.437 64.8432 193.614 65.4981C193.614 65.4981 83.6296 57.0941 37.7469 163.901Z" fill="#D3EBF3"/>
<path d="M309.667 271.299C314.938 271.642 320.115 273.19 324.722 275.738C321.415 271.72 317.186 268.471 312.336 266.338C308.175 264.508 303.571 263.483 298.722 263.483C285.428 263.483 273.942 271.13 268.528 282.212C266.882 285.581 265.806 289.27 265.402 293.156C274.253 289.574 280.681 281.193 289.045 276.231C295.202 272.578 302.5 270.833 309.667 271.299Z" fill="#142020"/>
<path d="M324.722 275.738C320.115 273.19 314.938 271.642 309.667 271.299C302.5 270.833 295.202 272.578 289.045 276.231C280.681 281.193 274.253 289.574 265.402 293.156C265.286 294.279 265.217 295.417 265.217 296.57C265.217 314.843 280.218 329.657 298.722 329.657C317.227 329.657 332.229 314.843 332.229 296.57C332.229 288.667 329.406 281.426 324.722 275.738Z" fill="#162F33"/>
<path d="M96.9768 291.072C96.5408 293.168 96.312 295.338 96.312 297.561C96.312 315.287 110.864 329.657 128.815 329.657C146.766 329.657 161.318 315.287 161.318 297.561C161.318 294.019 160.729 290.615 159.656 287.43L96.9768 291.072Z" fill="#162F33"/>
<path d="M128.815 265.464C113.114 265.464 100.015 276.456 96.9768 291.072L159.656 287.43C155.359 274.67 143.179 265.464 128.815 265.464Z" fill="#142020"/>
<path d="M267.684 215.395C267.684 215.395 257.658 218.508 257.112 227.503C256.566 236.498 255.108 251.174 262.395 257.599L266.403 260.966C266.403 260.966 271.814 252.187 270.839 233.278C270.839 233.278 270.037 222.432 267.684 215.395Z" fill="#29AEAA"/>
<path d="M122.267 222.774C128.578 227.241 183.81 224.242 205.798 222.853C195.876 208.268 164.461 207.174 164.461 207.174H116.502C116.976 213.343 118.421 220.051 122.267 222.774Z" fill="#F1471D"/>
<path d="M122.267 222.774C118.421 220.051 116.976 213.343 116.502 207.174H115.63C113.351 207.174 111.661 209.263 112.166 211.458L115.472 225.844C115.839 227.443 117.278 228.576 118.937 228.576H125.71L206.95 224.764C206.611 224.099 206.217 223.469 205.798 222.853C183.81 224.242 128.578 227.241 122.267 222.774Z" fill="#E9421F"/>
<path d="M209.384 141.23C209.195 140.636 209.021 140.089 208.86 139.584C209.036 140.137 209.214 140.693 209.384 141.23Z" fill="#F4CEAE"/>
<path d="M209.958 143.03C209.784 142.485 209.589 141.872 209.384 141.23C209.562 141.788 209.754 142.389 209.958 143.03Z" fill="#F4CEAE"/>
<path d="M208.718 139.138C208.436 138.255 208.202 137.518 208.008 136.911C208.223 137.585 208.466 138.35 208.718 139.138Z" fill="#F4CEAE"/>
<path d="M208.86 139.584C208.813 139.435 208.765 139.286 208.718 139.138C208.764 139.284 208.811 139.43 208.86 139.584Z" fill="#F4CEAE"/>
<path d="M210.55 144.888C210.468 144.632 210.341 144.231 210.181 143.73C210.3 144.103 210.422 144.489 210.55 144.888Z" fill="#F4CEAE"/>
<path d="M210.181 143.73C210.106 143.494 210.03 143.256 209.958 143.03C210.038 143.279 210.112 143.515 210.181 143.73Z" fill="#F4CEAE"/>
<path d="M210.645 145.185C210.612 145.084 210.582 144.989 210.55 144.888C210.599 145.042 210.632 145.147 210.645 145.185Z" fill="#F4CEAE"/>
<path d="M210.65 145.204C210.65 145.204 210.649 145.197 210.645 145.186C210.646 145.192 210.649 145.197 210.65 145.204Z" fill="#F4CEAE"/>
<path d="M208.008 136.911C207.993 136.862 207.977 136.812 207.962 136.764C207.976 136.811 207.993 136.862 208.008 136.911Z" fill="#F4CEAE"/>
<path d="M207.642 135.761C207.616 135.681 207.591 135.604 207.569 135.532C207.592 135.605 207.616 135.681 207.642 135.761Z" fill="#F4CEAE"/>
<path d="M213.215 151.249C212.202 149.347 211.33 147.337 210.65 145.204C210.65 145.204 206.294 146.901 201.511 150.845C201.511 150.845 202.178 152.934 203.876 156.05C205.654 155.483 207.417 154.867 209.087 154.045C210.585 153.308 212.001 152.38 213.215 151.249Z" fill="#D39472"/>
<path d="M207.313 134.73C207.295 134.672 207.281 134.628 207.27 134.594C207.281 134.628 207.294 134.67 207.313 134.73Z" fill="#F4CEAE"/>
<path d="M207.27 134.594C207.241 134.503 207.242 134.508 207.27 134.594V134.594Z" fill="#F4CEAE"/>
<path d="M258.357 183.473L257.182 180.955C256.337 179.141 254.356 178.122 252.366 178.476L246.239 179.751C246.239 179.751 223.6 170.764 213.215 151.249C212.001 152.38 210.585 153.308 209.087 154.045C207.417 154.867 205.654 155.483 203.876 156.05C208.495 164.528 220.81 180.675 248.586 183.585L250.419 184.097C252.253 185.486 250.609 188.559 250.609 188.559C250.609 188.559 255.329 187.478 257.827 185.669C258.515 185.17 258.714 184.237 258.357 183.473Z" fill="#E9B189"/>
<path d="M207.32 134.752C207.318 134.746 207.315 134.737 207.313 134.731C207.316 134.738 207.318 134.744 207.32 134.752Z" fill="#F4CEAE"/>
<path d="M207.722 136.012C207.694 135.925 207.667 135.841 207.642 135.761C207.667 135.841 207.694 135.923 207.722 136.012Z" fill="#F4CEAE"/>
<path d="M207.962 136.764C207.872 136.484 207.793 136.235 207.722 136.012C207.796 136.244 207.876 136.495 207.962 136.764Z" fill="#F4CEAE"/>
<path d="M207.569 135.532C207.462 135.195 207.376 134.926 207.32 134.752C207.372 134.915 207.454 135.171 207.569 135.532Z" fill="#F4CEAE"/>
<path d="M214.061 147.45C213.122 144.099 211.877 140.832 210.347 137.7C209.458 135.88 207.695 132.305 206.23 130.894C204.764 129.483 203.526 130.269 201.484 130.4C201.484 130.4 196.602 130.786 196.28 137.225C195.976 143.3 198.47 149.136 200.874 154.737C200.922 154.849 200.974 154.966 201.066 155.048C201.386 155.335 201.871 155.026 202.242 154.806C202.928 154.401 203.754 154.323 204.541 154.187C207.527 153.673 210.25 152.22 212.912 150.788L214.158 150.181C214.699 149.919 214.927 149.277 214.671 148.737L214.061 147.45Z" fill="#F1471D"/>
<path d="M253.25 182.327C253.25 182.327 253.563 182.624 253.823 183.216C253.944 183.511 254.071 183.869 254.136 184.264C254.167 184.467 254.197 184.657 254.207 184.886C254.207 185.091 254.221 185.288 254.21 185.505C254.182 185.947 254.103 186.374 253.954 186.762C253.812 187.151 253.566 187.473 253.33 187.704C253.09 187.939 252.822 188.047 252.646 188.107C252.463 188.163 252.354 188.156 252.354 188.156C252.354 188.156 252.766 187.986 253.098 187.503C253.448 187.038 253.624 186.259 253.663 185.493C253.681 185.3 253.674 185.084 253.68 184.885C253.673 184.693 253.666 184.504 253.659 184.32C253.632 183.95 253.601 183.601 253.531 183.308C253.412 182.718 253.25 182.327 253.25 182.327Z" fill="#D39472"/>
<path d="M255.477 181.466C255.477 181.466 255.813 181.732 256.17 182.27C256.339 182.542 256.529 182.876 256.642 183.274C256.762 183.667 256.805 184.125 256.758 184.562C256.722 184.963 256.63 185.421 256.496 185.794C256.366 186.18 256.166 186.513 255.971 186.776C255.778 187.041 255.549 187.206 255.394 187.311C255.232 187.412 255.126 187.436 255.126 187.436C255.126 187.436 255.458 187.157 255.71 186.616C255.848 186.352 255.946 186.017 256.034 185.659C256.115 185.288 256.187 184.93 256.214 184.507C256.309 183.745 256.124 182.971 255.897 182.408C255.676 181.843 255.477 181.466 255.477 181.466Z" fill="#D39472"/>
<path d="M196.059 188.44C223.731 197.753 244.044 211.169 244.094 211.215C244.094 211.215 252.874 214.699 247.826 224.535C244.467 231.079 236.754 251.929 232.658 258.05H219.115C223.48 242.427 225.714 228.035 240.518 217.78C226.702 218.263 211.272 214.474 201.088 211.277C191.978 208.417 185.967 204.911 185.306 195.493C185.066 192.054 184.798 183.854 186.578 179.802L187.058 175.797" fill="#162F33"/>
<path d="M216.577 269.075L220.634 258.05H229.789L226.866 265.586C226.866 265.586 231.103 275.403 216.577 274.388V269.075Z" fill="#E9B189"/>
<path d="M228.478 280.119C229.994 280.293 231.487 280.62 232.997 280.836C239.794 281.81 246.898 280.419 252.85 277.044C252.79 276.974 252.742 276.899 252.672 276.834C250.75 275.072 248.093 274.027 245.471 273.533C243.779 273.214 242.034 273.072 240.432 272.447C238.47 271.681 235.77 270.246 234.211 268.841C233.039 267.785 232.75 266.919 231.789 265.672C229.006 262.066 226.782 263.747 226.373 267.795C225.962 271.843 223.64 271.573 219.95 272.112C216.262 272.653 216.577 269.075 216.577 269.075C215.996 268.429 214.857 268.568 214.234 269.175C213.61 269.782 213.406 270.694 213.364 271.557C213.309 272.712 213.492 273.88 213.288 275.019C213.127 275.914 212.737 276.733 212.289 277.533C214.182 278.552 216.25 279.257 218.38 279.589C221.712 280.108 225.127 279.736 228.478 280.119Z" fill="#F1471D"/>
<path d="M212.289 277.533C211.921 278.188 211.514 278.831 211.158 279.489C211.062 279.666 210.968 279.869 211.03 280.059C211.078 280.209 211.212 280.314 211.341 280.407C213.016 281.619 214.878 282.446 216.846 283.011C217.121 281.823 217.352 280.626 217.553 279.423C215.717 279.051 213.934 278.42 212.289 277.533Z" fill="#D1DFDC"/>
<path d="M228.478 280.119C226.514 279.895 224.526 279.928 222.546 279.891C222.546 281.256 222.546 282.622 222.546 283.988C224.654 284.154 226.792 284.154 228.882 284.104C228.855 282.792 228.828 281.48 228.801 280.168C228.694 280.155 228.586 280.132 228.478 280.119Z" fill="#D1DFDC"/>
<path d="M218.38 279.589C218.102 279.545 217.829 279.479 217.553 279.423C217.352 280.626 217.121 281.823 216.846 283.011C218.676 283.537 220.597 283.835 222.546 283.988C222.546 282.622 222.546 281.256 222.546 279.891C221.15 279.865 219.758 279.804 218.38 279.589Z" fill="white"/>
<path d="M234.551 280.991C234.574 281.961 234.583 282.931 234.578 283.902C236.063 283.838 237.548 283.769 239.034 283.695C239.618 283.667 240.204 283.638 240.79 283.606C240.699 282.726 240.608 281.846 240.518 280.967C238.535 281.172 236.536 281.17 234.551 280.991Z" fill="#D1DFDC"/>
<path d="M234.551 280.991C234.032 280.944 233.512 280.91 232.997 280.836C231.594 280.635 230.206 280.348 228.801 280.168C228.828 281.48 228.855 282.792 228.882 284.104C229.188 284.097 229.494 284.089 229.797 284.08C231.391 284.032 232.984 283.971 234.578 283.902C234.583 282.931 234.574 281.961 234.551 280.991Z" fill="white"/>
<path d="M252.85 277.044C250.798 278.207 248.604 279.117 246.338 279.793C246.713 280.738 247.022 281.705 247.294 282.683C248.996 282.209 250.639 281.528 252.17 280.654C253.49 279.899 253.806 278.156 252.85 277.044Z" fill="#D1DFDC"/>
<path d="M240.518 280.967C240.608 281.846 240.699 282.726 240.79 283.606C242.455 283.514 244.119 283.382 245.753 283.056C246.271 282.953 246.785 282.826 247.294 282.683C247.022 281.705 246.713 280.738 246.338 279.794C244.439 280.361 242.49 280.762 240.518 280.967Z" fill="white"/>
<path d="M150.421 297.561C150.421 309.344 140.747 318.896 128.815 318.896C116.882 318.896 107.209 309.344 107.209 297.561C107.209 285.777 116.882 276.224 128.815 276.224C140.747 276.224 150.421 285.777 150.421 297.561Z" fill="white"/>
<path d="M137.141 299.706C142.777 300.093 148.61 299.489 153.789 297.142C159.41 294.594 162.038 290.271 165.158 285.137C166.374 283.137 164.041 281.426 162.833 283.413C159.965 288.134 156.699 292.155 151.388 294.244C146.806 296.047 141.861 296.431 136.978 296.096C134.633 295.935 134.814 299.547 137.141 299.706Z" fill="#29AEAA"/>
<path d="M138.177 297.561C138.177 302.666 133.985 306.805 128.815 306.805C123.645 306.805 119.453 302.666 119.453 297.561C119.453 292.455 123.645 288.316 128.815 288.316C133.985 288.316 138.177 292.455 138.177 297.561Z" fill="#1B3E44"/>
<path d="M133.863 297.561C133.863 300.314 131.603 302.546 128.815 302.546C126.026 302.546 123.766 300.314 123.766 297.561C123.766 294.807 126.026 292.576 128.815 292.576C131.603 292.576 133.863 294.807 133.863 297.561Z" fill="#29AEAA"/>
<path d="M319.238 296.57C319.238 307.759 310.053 316.829 298.722 316.829C287.393 316.829 278.208 307.759 278.208 296.57C278.208 285.382 287.393 276.312 298.722 276.312C310.053 276.312 319.238 285.382 319.238 296.57Z" fill="white"/>
<path d="M307.611 296.57C307.611 301.418 303.632 305.348 298.722 305.348C293.814 305.348 289.834 301.418 289.834 296.57C289.834 291.723 293.814 287.792 298.722 287.792C303.632 287.792 307.611 291.723 307.611 296.57Z" fill="#1B3E44"/>
<path d="M298.291 255.898L271.39 268.862L278.009 245.17L268.954 196.199C268.954 196.199 275.541 213.052 283.236 226.423C288.422 235.434 292.274 245.314 301.966 250.083C303.795 250.983 305.979 252.071 306.654 254.54C308.809 262.436 306.654 254.54 306.654 254.54L298.291 255.898Z" fill="#207279"/>
<path d="M262.395 257.599L266.403 260.966C266.403 260.966 262.76 282.762 245.634 290.575H171.154C172.233 289.524 173.242 288.408 174.157 287.216L175.674 285.794L175.166 285.816C176.146 284.362 176.99 282.809 177.656 281.149C182.293 269.589 176.759 255.336 166.901 248.307C157.042 241.279 144.035 240.617 132.554 243.908C112.136 249.761 95.4328 268.037 90.4032 289.681L83.9968 289.973C82.6056 290.037 81.6832 288.554 82.388 287.369C86.8992 279.79 88.4288 270.59 92.8864 262.891C99.1912 252 110.602 245.202 120.732 237.632C121.018 237.419 121.317 237.187 121.446 236.856C121.665 236.297 121.329 235.694 121.105 235.136C119.931 232.213 122.527 228.516 125.71 228.576L206.95 224.764C208.74 224.68 210.208 226.248 209.879 228.081C209.722 228.966 209.086 229.693 208.282 230.114C201.69 233.567 178.151 247.859 191.707 269.961C204.679 291.113 235.645 283.179 249.499 276.224C249.499 276.224 257.294 271.324 262.395 257.599Z" fill="#207279"/>
<path d="M266.403 260.966C266.403 260.966 277.127 232.54 261.302 199.078L268.954 196.199C268.954 196.199 294.46 243.386 262.395 282.915C262.395 282.915 259.48 288.879 243.812 290.575C243.812 290.575 258.387 285.074 266.403 260.966Z" fill="#162F33"/>
<path d="M257.767 293.293C257.253 293.406 256.802 292.923 256.965 292.427C258.782 286.885 267.769 262.049 284.986 254.849C305.209 246.393 322.157 260.632 328.503 270.982C329.208 272.131 328.008 273.47 326.568 273.158C319.45 271.619 304.149 265.103 288.282 274.461C276.884 281.183 272.454 290.072 257.767 293.293Z" fill="#199192"/>
<path d="M172.819 200.022C173.009 209.461 179.812 213.588 188.922 216.448C199.106 219.645 214.538 223.433 228.352 222.951C213.55 233.206 211.314 247.599 206.95 263.221H220.493C224.589 257.099 238.586 233.195 241.945 226.651C246.993 216.815 238.212 213.332 238.212 213.332C238.162 213.285 235.052 210.91 213.024 199.736L208.238 197.944L198.845 199.833L205.574 196.595L206.576 192.104L176.768 182.327C176.768 182.327 172.658 192.047 172.819 200.022Z" fill="#1B3E44"/>
<path d="M204.411 274.246L208.468 263.221H217.623L214.701 270.758C214.701 270.758 218.938 280.573 204.411 279.558V274.246Z" fill="#F4CEAE"/>
<path d="M216.314 285.29C217.829 285.463 219.322 285.79 220.831 286.007C227.629 286.981 234.733 285.591 240.685 282.215C240.625 282.145 240.577 282.07 240.506 282.006C238.584 280.244 235.928 279.198 233.306 278.704C231.614 278.385 229.869 278.244 228.267 277.618C226.304 276.852 223.605 275.417 222.046 274.012C220.874 272.956 220.585 272.089 219.623 270.844C216.841 267.236 214.617 268.918 214.207 272.966C213.797 277.014 211.474 276.744 207.785 277.284C204.096 277.823 204.411 274.246 204.411 274.246C203.831 273.599 202.691 273.739 202.068 274.346C201.445 274.952 201.24 275.865 201.198 276.728C201.143 277.883 201.327 279.052 201.122 280.19C200.962 281.085 200.571 281.904 200.123 282.703C202.016 283.724 204.084 284.428 206.214 284.76C209.546 285.279 212.962 284.907 216.314 285.29Z" fill="#F57F1E"/>
<path d="M200.123 282.703C199.755 283.36 199.349 284.002 198.993 284.661C198.897 284.837 198.802 285.039 198.864 285.23C198.913 285.38 199.047 285.485 199.175 285.578C200.85 286.79 202.713 287.618 204.68 288.183C204.955 286.994 205.186 285.797 205.388 284.594C203.551 284.222 201.769 283.591 200.123 282.703Z" fill="#D1DFDC"/>
<path d="M216.314 285.29C214.348 285.065 212.361 285.098 210.382 285.061C210.382 286.427 210.382 287.793 210.382 289.159C212.488 289.324 214.626 289.325 216.718 289.274C216.69 287.963 216.662 286.651 216.636 285.339C216.528 285.325 216.422 285.303 216.314 285.29Z" fill="#D1DFDC"/>
<path d="M206.214 284.76C205.936 284.717 205.663 284.65 205.388 284.594C205.186 285.797 204.955 286.994 204.68 288.182C206.51 288.708 208.431 289.006 210.382 289.159C210.382 287.793 210.382 286.427 210.382 285.061C208.985 285.035 207.593 284.975 206.214 284.76Z" fill="white"/>
<path d="M222.386 286.162C222.408 287.133 222.418 288.103 222.412 289.073C223.898 289.01 225.382 288.939 226.868 288.867C227.453 288.837 228.038 288.809 228.624 288.777C228.534 287.897 228.443 287.017 228.352 286.137C226.37 286.343 224.37 286.341 222.386 286.162Z" fill="#D1DFDC"/>
<path d="M222.386 286.162C221.866 286.115 221.347 286.081 220.831 286.007C219.429 285.806 218.04 285.519 216.636 285.339C216.662 286.651 216.69 287.963 216.718 289.274C217.022 289.267 217.328 289.26 217.631 289.251C219.226 289.203 220.819 289.142 222.412 289.073C222.418 288.103 222.408 287.133 222.386 286.162Z" fill="white"/>
<path d="M240.685 282.215C238.633 283.379 236.438 284.288 234.173 284.964C234.547 285.909 234.856 286.877 235.128 287.855C236.83 287.381 238.474 286.7 240.004 285.824C241.325 285.07 241.64 283.326 240.685 282.215Z" fill="#D1DFDC"/>
<path d="M228.352 286.137C228.443 287.017 228.534 287.897 228.624 288.777C230.29 288.685 231.954 288.553 233.587 288.228C234.106 288.124 234.619 287.996 235.128 287.855C234.856 286.877 234.547 285.909 234.173 284.964C232.274 285.531 230.325 285.933 228.352 286.137Z" fill="white"/>
<path d="M95.6376 250.75C95.5136 250.742 95.3872 250.74 95.2616 250.734C90.388 257.661 86.6864 265.387 84.3408 273.496C85.9768 274.713 87.9992 275.342 88.4032 273.887C91.8608 261.442 103.116 250.834 103.116 250.834C100.845 251.355 97.9648 250.901 95.6376 250.75Z" fill="#1B3E44"/>
<path d="M88.7104 261.986C90.5704 258.063 92.7584 254.292 95.2616 250.734C93.0384 250.635 90.66 250.928 89.0624 252.433C87.9944 253.439 87.4304 254.845 86.8968 256.204C86.284 257.767 85.6704 259.329 85.0576 260.892C85.068 260.896 85.0792 260.899 85.0896 260.903C86.2872 261.295 87.496 261.649 88.7104 261.986Z" fill="#F1471D"/>
<path d="M85.0896 260.903C85.0792 260.899 85.068 260.896 85.0576 260.892C84.3384 262.724 83.62 264.556 82.9016 266.387C82.304 267.91 81.7032 269.609 82.2984 271.133C82.6096 271.931 83.4136 272.808 84.3408 273.496C85.4816 269.552 86.9488 265.701 88.7104 261.986C87.496 261.649 86.2872 261.295 85.0896 260.903Z" fill="#F57F1E"/>
<path d="M314.022 283.076L301.147 299.54C300.996 299.78 300.826 300.008 300.625 300.207L300.624 300.208C299.951 300.872 299.022 301.284 297.994 301.284C295.94 301.284 294.275 299.639 294.275 297.611C294.275 296.465 294.818 295.454 295.652 294.78L295.641 294.768L311.276 280.553C311.276 280.553 312.93 281.683 314.022 283.076Z" fill="#29AEAA"/>
<path d="M204.166 127.576L189.762 122.17C189.762 122.17 182.78 125.441 181.14 142.569C181.14 142.569 179.954 143.966 180.82 147.593C180.82 147.593 179.683 148.512 179.683 151.036C179.683 153.56 179.683 151.036 178.226 161.656C178.226 161.656 177.132 175.118 176.222 177.652C175.31 180.187 174.274 180.007 174.274 182.253C174.274 185.662 206.576 192.104 206.576 192.104C208.162 169.528 209.507 163.384 209.671 155.164C209.766 150.399 208.93 137.27 206.452 129.582" fill="#F57F1E"/>
<path d="M204.166 127.576L203.55 132.691L188.343 121.087C188.343 121.087 188.253 116.47 194.534 116.844L193.843 119.198L204.166 127.576Z" fill="white"/>
<path d="M251.1 292.63H169.48C168.879 292.63 168.387 292.144 168.387 291.551V290.76C168.387 290.166 168.879 289.681 169.48 289.681H251.1C251.701 289.681 252.193 290.166 252.193 290.76V291.551C252.193 292.144 251.701 292.63 251.1 292.63Z" fill="#1B3E44"/>
<path d="M193.843 119.198L192.605 118.208C192.605 118.208 193.026 117.887 194.234 117.868L193.843 119.198Z" fill="#E2E9E6"/>
<path d="M204.166 127.576L207.234 132.192V130.931C207.234 130.258 207.141 129.591 206.958 128.947C206.776 128.309 206.45 127.72 206.056 127.184L204.773 125.441L204.166 127.576Z" fill="white"/>
<path d="M276.366 169.152C273.794 169.664 270.998 170.748 268.954 172.99C264.751 177.601 260.755 178.208 257.476 180.007C257.443 180.025 257.411 180.043 257.379 180.062C255.402 181.187 254.663 183.652 255.556 185.727L261.302 199.078L268.954 196.199C268.954 196.199 265.31 190.086 265.31 186.304C265.31 184.293 269.268 185.775 270.557 186.311C270.87 186.442 271.19 186.57 271.509 186.684C273.557 187.409 275.14 187.768 277.127 187.924C274.874 179.542 275.561 172.895 276.366 169.152Z" fill="#207279"/>
<path d="M197.032 111.481C197.106 112.87 196.91 114.544 196.009 115.614C195.567 115.353 196.009 115.614 195.012 114.079C194.686 114.361 194.36 114.644 194.034 114.926C193.97 114.502 193.907 114.078 193.844 113.654C193.44 113.867 193.036 114.08 192.633 114.293C192.906 111.691 192.421 109.014 191.249 106.667L193.546 105.66L197.032 111.481Z" fill="#162F33"/>
<path d="M203.258 93.6742C203.188 93.7169 203.149 93.743 203.149 93.743C203.184 93.7185 203.222 93.6979 203.258 93.6742Z" fill="#207279"/>
<path d="M220.917 93.0905C217.346 87.6734 212.99 88.4674 210.037 89.1073C210.817 88.9959 211.612 89.1089 212.403 89.2329C217.45 90.0213 217.708 94.4738 217.708 94.4738C217.708 94.4738 219.7 94.3355 220.917 93.0905Z" fill="#1B3E44"/>
<path d="M193.843 119.198C193.843 119.198 199.711 123.96 204.166 127.576L204.35 126.927L194.154 118.137L193.843 119.198Z" fill="#E9B189"/>
<path d="M207.234 116.737C207.234 116.737 201.809 117.003 195.778 112.838L195.442 113.756L194.154 118.137L204.35 126.927L207.07 117.348L207.234 116.737Z" fill="#F4CEAE"/>
<path d="M191.362 96.6976C191.362 96.6976 190.98 111.318 197.837 114.396C204.694 117.474 206.297 118.089 211.418 116.704C216.538 115.319 216.694 106.393 217.318 99.314C217.941 92.2348 215.514 82.2311 204.338 82.3851C204.338 82.3851 193.146 80.8462 191.362 96.6976Z" fill="#F4CEAE"/>
<path d="M209.694 101.67C209.643 101.661 209.594 101.645 209.543 101.638C207.673 101.405 206.004 102.722 204.192 103.236C201.704 103.941 198.976 103.065 196.896 101.543C194.817 100.023 193.262 97.9189 191.743 95.8507L192.002 101.037C192.002 101.037 193.504 99.2548 193.762 109.981C193.789 111.129 194.605 112.109 195.591 112.919C194.988 112.456 201.906 117.502 208.777 117.373C211.034 109.258 210.606 104.422 209.694 101.67Z" fill="#29AEAA"/>
<path d="M217.138 102.094C215.506 102.86 213.622 102.973 211.909 102.405C211.17 102.159 210.46 101.799 209.694 101.67C210.606 104.422 211.034 109.258 208.777 117.373C209.662 117.357 210.547 117.265 211.415 117.054C217.405 115.592 217.138 102.094 217.138 102.094Z" fill="#199192"/>
<path d="M191.358 99.7399C191.358 99.7399 186.772 94.1412 186.46 99.7399C186.149 105.339 191.844 108.759 192.658 106.538L191.358 99.7399Z" fill="#F4CEAE"/>
<path d="M189.651 97.8881C189.35 98.7903 190.127 99.7035 190.63 100.513C191.794 102.391 192.93 104.532 193.658 106.613C193.994 104.778 193.659 102.72 193.032 100.96C193.528 101.218 193.927 101.652 194.14 102.164C194.885 100.629 193.739 98.7192 194.362 97.1329C194.877 95.8207 196.386 95.2195 197.374 94.2036C198.011 93.5479 198.436 92.6931 198.571 91.7941C198.571 91.7941 191.666 91.8644 189.651 97.8881Z" fill="#162F33"/>
<path d="M203.55 90.79C205.15 91.1763 206.662 91.9197 207.939 92.9482C208.173 92.622 208.298 92.2214 208.29 91.8225C209.441 93.0359 210.967 93.897 212.61 94.2612C212.269 93.9239 212.066 93.4538 212.055 92.9775C213.91 94.0416 216.937 97.1471 219.08 97.2514C218.358 89.7875 215.153 88.48 212.298 87.0303C209.442 85.5807 206.329 85.7237 203.136 86.0555" fill="#162F33"/>
<path d="M193.286 80.5381C184.994 86.5405 187.195 97.5595 187.195 97.5595C188.709 96.8824 189.553 98.1235 189.553 98.1235C194.429 89.7764 201.874 87.4175 207.687 87.0872C206.618 82.9461 205.278 79.8737 204.049 77.6657C200.405 77.2889 196.548 78.1768 193.286 80.5381Z" fill="#F57F1E"/>
<path d="M216.382 87.9254C214.776 81.8582 209.667 78.2456 204.049 77.6657C205.278 79.8737 206.618 82.9461 207.687 87.0872C212.623 86.8076 216.382 87.9254 216.382 87.9254Z" fill="#F1471D"/>
<path d="M220.917 93.0905C222.55 90.7355 216.382 87.9254 216.382 87.9254C198.616 82.8473 191.358 95.3585 191.358 95.3585C194.511 96.4859 200.756 92.697 204.082 90.4289C204.082 90.4289 204.126 90.3997 204.207 90.3507C205.509 89.488 206.981 88.9011 208.508 88.683C211.876 87.9531 216.643 88.2059 220.917 93.0905Z" fill="white"/>
<path d="M187.195 99.9271C187.195 99.9271 187.222 99.8126 187.326 99.6285C187.382 99.5385 187.457 99.4342 187.567 99.3228C187.68 99.2161 187.841 99.1087 188.057 99.0779C188.274 99.0542 188.509 99.1111 188.712 99.2256C188.915 99.3409 189.098 99.4918 189.244 99.6743C189.558 100.027 189.786 100.452 189.994 100.879C190.793 102.611 190.902 104.492 190.902 104.492C190.902 104.492 190.687 104.07 190.435 103.427C190.325 103.1 190.136 102.741 189.99 102.339C189.922 102.136 189.82 101.94 189.738 101.733C189.648 101.531 189.576 101.312 189.469 101.117C189.37 100.919 189.284 100.708 189.177 100.52C189.058 100.346 188.977 100.135 188.848 99.9879C188.73 99.8228 188.614 99.6798 188.482 99.5724C188.353 99.4665 188.215 99.4097 188.08 99.397C187.946 99.3978 187.813 99.4326 187.695 99.4918C187.582 99.5566 187.487 99.6293 187.414 99.6972C187.27 99.8339 187.195 99.9271 187.195 99.9271Z" fill="#E9B189"/>
<path d="M190.314 102.354C190.314 102.354 190.161 102.467 190.011 102.638C189.857 102.811 189.721 103.048 189.603 103.307C189.487 103.564 189.368 103.849 189.275 104.08C189.186 104.309 189.089 104.476 189.089 104.476C189.089 104.476 189.066 104.435 189.038 104.361C189.021 104.286 188.961 104.178 188.952 104.046C188.909 103.785 188.916 103.412 189.079 103.067C189.228 102.714 189.563 102.448 189.842 102.366C190.126 102.279 190.314 102.354 190.314 102.354Z" fill="#E9B189"/>
<path d="M281.515 169.346C280.246 169.024 278.376 168.752 276.366 169.152C275.561 172.895 274.874 179.542 277.127 187.924C279.122 188.081 280.985 188.041 282.099 187.989C279.087 181.606 280.754 172.598 281.515 169.346Z" fill="#1B3E44"/>
<path d="M283.236 187.753C280.906 180.192 281.893 174.396 283.175 169.915C283.174 169.912 283.165 169.893 283.165 169.893C283.165 169.893 282.533 169.604 281.515 169.346C280.754 172.598 279.087 181.606 282.099 187.989C282.766 187.958 283.165 187.923 283.165 187.923C283.192 187.866 283.21 187.81 283.236 187.753Z" fill="#162F33"/>
<path d="M283.682 170.977C283.407 170.341 283.198 169.961 283.175 169.915C281.893 174.396 280.906 180.192 283.236 187.753C283.39 187.424 283.509 187.103 283.642 186.779C281.684 179.39 282.991 173.327 283.682 170.977Z" fill="#F1471D"/>
<path d="M283.682 170.977C282.991 173.327 281.684 179.39 283.642 186.779C286.65 179.482 284.704 173.353 283.682 170.977Z" fill="#F57F1E"/>
<path d="M164.84 144.865C164.84 143.111 163.4 141.689 161.624 141.689H101.741C99.9648 141.689 98.5248 143.111 98.5248 144.865V157.581H164.84V144.865Z" fill="#F1471D"/>
<path d="M98.5248 157.581V203.999C98.5248 205.753 99.9648 207.175 101.741 207.175H161.624C163.4 207.175 164.84 205.753 164.84 203.999V157.581H98.5248Z" fill="#F57F1E"/>
<path d="M122.267 162.627H118.558V152.806H122.267V162.627Z" fill="#162F33"/>
<path d="M144.807 162.627H141.097V152.806H144.807V162.627Z" fill="#162F33"/>
<path d="M138.874 207.175H136.65V204.488C136.65 204.044 137.014 203.684 137.463 203.684H138.06C138.509 203.684 138.874 204.044 138.874 204.488V207.175Z" fill="#162F33"/>
<path d="M97.7632 177.991C97.4776 177.314 97.0328 175.726 97.484 175.141C97.6488 174.926 97.9784 174.848 98.4608 174.91C98.4832 174.913 98.5024 174.919 98.5248 174.922V173.919C97.4984 173.813 96.9488 174.189 96.6808 174.536C95.7568 175.734 96.7184 178.108 96.844 178.401C103.114 191.081 119.383 201.115 140.934 207.203L142.81 207.175C121.554 201.172 103.887 190.371 97.7632 177.991Z" fill="#162F33"/>
<path d="M124.49 207.175H126.714V204.488C126.714 204.044 126.35 203.684 125.901 203.684H125.304C124.855 203.684 124.49 204.044 124.49 204.488V207.175Z" fill="#162F33"/>
<path d="M165.601 177.991C165.886 177.314 166.331 175.726 165.88 175.141C165.715 174.926 165.386 174.848 164.903 174.91C164.881 174.913 164.862 174.919 164.839 174.922V173.919C165.866 173.813 166.415 174.189 166.683 174.536C167.607 175.734 166.646 178.108 166.52 178.401C160.25 191.081 143.981 201.115 122.43 207.203L120.554 207.175C141.81 201.172 159.477 190.371 165.601 177.991Z" fill="#162F33"/>
<path d="M88.0792 289.804L92.4344 289.584C100.45 246.678 146.25 242 146.25 242C102.292 242.706 90.5432 279.33 88.0792 289.804Z" fill="#1B3E44"/>
<path d="M166.901 248.307C157.042 241.279 144.035 240.617 132.554 243.908C119.685 247.597 108.296 256.223 100.37 267.515C108.928 265.756 134.094 261.033 156.363 261.326C156.363 261.326 169.116 260.966 163.65 272.12C161.111 277.303 158.101 282.562 155.604 286.708L175.166 285.816C176.146 284.362 176.99 282.809 177.656 281.149C182.293 269.589 176.759 255.336 166.901 248.307Z" fill="#199192"/>
<path d="M156.363 261.326C134.094 261.033 108.928 265.756 100.37 267.515C95.7216 274.139 92.2624 281.678 90.4032 289.681L155.604 286.708C158.101 282.562 161.111 277.303 163.65 272.12C169.116 260.966 156.363 261.326 156.363 261.326Z" fill="#29AEAA"/>
<path d="M114.183 271.087C114.183 271.087 114.725 270.976 115.678 270.821C116.632 270.68 117.993 270.438 119.636 270.246C121.279 270.051 123.195 269.806 125.255 269.624C127.315 269.432 129.516 269.279 131.719 269.153C132.822 269.105 133.923 269.057 135.008 269.009C136.093 268.955 137.162 268.955 138.197 268.929C140.265 268.891 142.197 268.925 143.851 268.951C145.506 268.965 146.885 269.065 147.85 269.106C148.814 269.169 149.364 269.204 149.364 269.204C149.364 269.204 148.814 269.245 147.85 269.317C146.887 269.375 145.513 269.458 143.862 269.558C140.566 269.742 136.173 269.986 131.778 270.231C127.383 270.455 122.987 270.679 119.691 270.848C118.039 270.923 116.663 270.985 115.7 271.028C114.734 271.066 114.183 271.087 114.183 271.087Z" fill="#162F33"/>
<path d="M114.117 274.438C114.117 274.438 114.658 274.328 115.611 274.173C116.566 274.032 117.926 273.789 119.57 273.597C121.212 273.403 123.129 273.157 125.189 272.976C127.249 272.784 129.45 272.631 131.653 272.505C132.754 272.457 133.857 272.409 134.942 272.361C136.026 272.307 137.096 272.307 138.13 272.28C140.198 272.243 142.13 272.277 143.785 272.303C145.439 272.317 146.818 272.417 147.782 272.458C148.746 272.52 149.298 272.555 149.298 272.555C149.298 272.555 148.747 272.597 147.783 272.668C146.821 272.727 145.446 272.81 143.796 272.91C140.5 273.094 136.106 273.338 131.712 273.583C127.317 273.807 122.921 274.031 119.624 274.2C117.973 274.275 116.597 274.337 115.634 274.38C114.668 274.418 114.117 274.438 114.117 274.438Z" fill="#162F33"/>
<path d="M114.046 277.985C114.046 277.985 114.587 277.875 115.541 277.719C116.495 277.579 117.856 277.336 119.499 277.144C121.142 276.95 123.058 276.705 125.118 276.523C127.178 276.33 129.379 276.178 131.582 276.052C132.684 276.004 133.786 275.956 134.871 275.908C135.956 275.853 137.026 275.854 138.059 275.827C140.128 275.789 142.06 275.825 143.714 275.85C145.369 275.864 146.748 275.964 147.712 276.005C148.676 276.067 149.227 276.103 149.227 276.103C149.227 276.103 148.677 276.144 147.713 276.215C146.75 276.273 145.375 276.357 143.726 276.457C140.43 276.641 136.035 276.885 131.642 277.129C127.246 277.353 122.85 277.578 119.554 277.747C117.902 277.821 116.526 277.883 115.562 277.927C114.598 277.964 114.046 277.985 114.046 277.985Z" fill="#162F33"/>
<path d="M113.965 282.081C113.965 282.081 114.506 281.97 115.459 281.814C116.414 281.674 117.774 281.431 119.418 281.239C121.061 281.045 122.977 280.8 125.037 280.617C127.097 280.425 129.298 280.274 131.501 280.147C132.602 280.099 133.705 280.051 134.79 280.004C135.874 279.948 136.944 279.949 137.978 279.922C140.046 279.884 141.978 279.919 143.633 279.945C145.287 279.959 146.666 280.059 147.63 280.1C148.594 280.162 149.146 280.198 149.146 280.198C149.146 280.198 148.595 280.239 147.631 280.31C146.669 280.369 145.294 280.452 143.644 280.552C140.348 280.735 135.954 280.98 131.56 281.224C127.165 281.449 122.769 281.674 119.472 281.842C117.821 281.916 116.445 281.979 115.482 282.022C114.516 282.059 113.965 282.081 113.965 282.081Z" fill="#162F33"/>
<path d="M256.986 187.335L240.386 190.891C238.218 191.404 236.122 189.649 236.401 187.465C236.404 187.438 236.408 187.411 236.411 187.383C236.618 185.934 237.87 184.851 239.346 184.733L255.484 183.742C255.484 183.742 257.339 183.545 257.932 184.114C258.524 184.685 259.274 186.478 256.986 187.335Z" fill="#1B3E44"/>
<path d="M199.529 141.703C199.369 141.095 199.222 140.535 199.086 140.019C199.235 140.584 199.385 141.153 199.529 141.703Z" fill="#F4CEAE"/>
<path d="M200.013 143.546C199.866 142.988 199.702 142.36 199.529 141.703C199.679 142.275 199.84 142.89 200.013 143.546Z" fill="#F4CEAE"/>
<path d="M198.966 139.561C198.73 138.657 198.531 137.902 198.368 137.281C198.55 137.972 198.755 138.755 198.966 139.561Z" fill="#F4CEAE"/>
<path d="M199.086 140.019C199.046 139.866 199.006 139.713 198.966 139.561C199.006 139.711 199.046 139.861 199.086 140.019Z" fill="#F4CEAE"/>
<path d="M200.512 145.448C200.443 145.185 200.335 144.775 200.201 144.263C200.301 144.644 200.405 145.039 200.512 145.448Z" fill="#F4CEAE"/>
<path d="M200.201 144.263C200.137 144.02 200.074 143.778 200.013 143.546C200.079 143.801 200.142 144.041 200.201 144.263Z" fill="#F4CEAE"/>
<path d="M200.592 145.753C200.564 145.648 200.539 145.551 200.512 145.448C200.553 145.606 200.582 145.713 200.592 145.753Z" fill="#F4CEAE"/>
<path d="M200.597 145.771C200.597 145.771 200.595 145.765 200.592 145.753C200.594 145.759 200.595 145.765 200.597 145.771Z" fill="#F4CEAE"/>
<path d="M198.368 137.281C198.355 137.231 198.342 137.18 198.329 137.131C198.342 137.179 198.355 137.232 198.368 137.281Z" fill="#F4CEAE"/>
<path d="M198.059 136.104C198.038 136.022 198.017 135.942 197.998 135.87C198.018 135.945 198.038 136.022 198.059 136.104Z" fill="#F4CEAE"/>
<path d="M202.864 151.993C201.944 150.025 201.17 147.955 200.597 145.771C200.597 145.771 196.119 147.259 191.094 150.989C191.094 150.989 191.656 153.126 193.204 156.354C195.025 155.873 196.833 155.342 198.559 154.599C200.107 153.933 201.582 153.07 202.864 151.993Z" fill="#E9B189"/>
<path d="M197.782 135.048C197.766 134.99 197.754 134.944 197.746 134.91C197.754 134.944 197.766 134.986 197.782 135.048Z" fill="#F4CEAE"/>
<path d="M197.746 134.91C197.721 134.817 197.722 134.821 197.746 134.91V134.91Z" fill="#F4CEAE"/>
<path d="M250.313 185.57L249.27 182.993C248.512 181.123 246.57 179.994 244.546 180.25L237.962 181.081C237.962 181.081 212.307 172.184 202.864 151.993C201.582 153.07 200.107 153.933 198.559 154.599C196.833 155.342 195.025 155.873 193.204 156.354C197.414 165.131 208.867 182.027 236.701 186.375C236.701 186.375 239.144 183.223 242.29 185.814C244.082 187.288 242.23 190.667 242.23 190.667C242.23 190.667 247.075 191.362 250.063 187.502C250.488 186.953 250.573 186.212 250.313 185.57Z" fill="#F4CEAE"/>
<path d="M197.788 135.071C197.786 135.064 197.784 135.055 197.782 135.049C197.784 135.057 197.786 135.063 197.788 135.071Z" fill="#F4CEAE"/>
<path d="M198.126 136.361C198.103 136.272 198.081 136.187 198.059 136.104C198.081 136.186 198.103 136.271 198.126 136.361Z" fill="#F4CEAE"/>
<path d="M198.329 137.131C198.254 136.845 198.186 136.589 198.126 136.361C198.189 136.599 198.257 136.856 198.329 137.131Z" fill="#F4CEAE"/>
<path d="M197.998 135.87C197.907 135.525 197.834 135.249 197.788 135.071C197.832 135.238 197.901 135.5 197.998 135.87Z" fill="#F4CEAE"/>
<path d="M203.915 148.209C203.144 144.784 202.061 141.429 200.683 138.195C199.883 136.317 198.962 134.448 197.56 132.951C196.158 131.455 194.2 130.36 192.136 130.389C192.136 130.389 187.197 130.529 186.535 136.999C185.911 143.105 188.119 149.112 190.248 154.877C190.291 154.993 190.336 155.113 190.425 155.2C190.733 155.506 191.238 155.219 191.623 155.017C192.335 154.643 193.171 154.607 193.971 154.511C197.007 154.145 199.826 152.819 202.583 151.512L203.87 150.965C204.429 150.728 204.693 150.093 204.463 149.537L203.915 148.209Z" fill="#F1471D"/>
<path d="M244.91 184.843C244.91 184.843 245.224 185.141 245.484 185.733C245.605 186.028 245.732 186.385 245.797 186.781C245.828 186.983 245.858 187.174 245.868 187.402C245.868 187.608 245.882 187.805 245.87 188.022C245.843 188.464 245.764 188.891 245.615 189.278C245.473 189.667 245.228 189.989 244.99 190.22C244.75 190.456 244.483 190.564 244.307 190.624C244.124 190.679 244.015 190.673 244.015 190.673C244.015 190.673 244.428 190.503 244.759 190.02C245.11 189.554 245.285 188.776 245.324 188.009C245.342 187.816 245.334 187.601 245.341 187.401C245.334 187.209 245.327 187.021 245.32 186.837C245.293 186.466 245.262 186.118 245.192 185.825C245.073 185.235 244.91 184.843 244.91 184.843Z" fill="#E9B189"/>
<path d="M247.138 183.982C247.138 183.982 247.474 184.249 247.831 184.787C248 185.059 248.19 185.393 248.303 185.791C248.423 186.184 248.466 186.641 248.418 187.078C248.383 187.48 248.291 187.937 248.157 188.311C248.026 188.696 247.826 189.03 247.633 189.293C247.438 189.558 247.21 189.723 247.054 189.827C246.893 189.928 246.786 189.953 246.786 189.953C246.786 189.953 247.118 189.674 247.371 189.132C247.509 188.868 247.607 188.534 247.695 188.176C247.776 187.805 247.848 187.446 247.875 187.024C247.97 186.261 247.785 185.488 247.558 184.925C247.337 184.36 247.138 183.982 247.138 183.982Z" fill="#E9B189"/>
<path d="M260.574 198.403L268.954 195.344L269.41 196.469L261.191 199.527L260.574 198.403Z" fill="#29AEAA"/>
<path d="M133.914 113.653C133.167 111.506 129.581 110.816 128.565 112.853C125.194 107.7 116.059 108.044 113.098 113.436C114.187 108.232 109.369 103.091 104.03 102.427C98.6912 101.765 93.4288 104.609 89.736 108.475C91.3392 100.343 83.5424 91.8083 75.1859 92.5478C66.8297 93.2872 60.6941 103.055 63.7356 110.776C61.2813 107.385 56.0594 106.333 52.4562 108.504C51.3382 109.178 50.429 110.132 49.7634 111.237C47.6672 110.32 45.4784 109.766 43.2103 110.008C38.8538 110.475 34.9678 115.579 37.4131 119.17C39.1947 121.786 42.9428 121.995 46.1344 121.934C72.2222 121.439 98.3096 120.943 124.398 120.449C126.697 120.405 129.094 120.338 131.122 119.269C133.151 118.201 134.66 115.801 133.914 113.653Z" fill="white"/>
<path d="M249.985 148.202C250.538 146.393 253.499 145.711 254.406 147.375C255.087 143.246 261.604 141.694 264.116 145.062C263.076 142.931 264.777 140.292 267.004 139.421C269.232 138.549 271.735 138.937 274.097 139.339C270.798 136.036 272.011 129.874 275.898 127.268C279.784 124.663 285.276 125.304 289.135 127.95C292.994 130.595 295.413 134.881 296.847 139.298C296.612 135.833 299.019 132.362 302.376 131.326C305.733 130.291 309.713 131.791 311.517 134.772C311.023 132.624 314.619 131.536 316.194 133.095C317.524 134.413 317.654 136.416 317.459 138.32C318.97 136.934 320.76 135.87 322.745 135.313C326.854 134.159 331.718 135.472 334.217 138.892C336.716 142.314 336.214 147.702 332.789 150.222C330.321 152.038 327.021 152.171 323.944 152.232C302.002 152.67 280.06 153.108 258.118 153.546C256.205 153.584 254.21 153.605 252.488 152.782C250.766 151.96 249.433 150.011 249.985 148.202Z" fill="white"/>
</svg>
