<svg width="100" height="266" viewBox="0 0 100 266" fill="none" xmlns="http://www.w3.org/2000/svg">
<g clip-path="url(#clip0)">
<path d="M250 58.8467H248.639V21.573C248.639 18.74 248.081 15.9347 246.997 13.3174C245.913 10.7 244.324 8.32184 242.321 6.3186C240.318 4.31536 237.939 2.7263 235.322 1.64215C232.705 0.558006 229.899 2.23423e-06 227.066 0H148.097C145.264 -6.70245e-06 142.459 0.557989 139.841 1.64213C137.224 2.72627 134.846 4.31532 132.843 6.31855C130.839 8.32178 129.25 10.7 128.166 13.3173C127.082 15.9347 126.524 18.7399 126.524 21.573V226.059C126.524 231.781 128.797 237.268 132.843 241.314C136.888 245.36 142.375 247.632 148.097 247.632H227.066C232.788 247.632 238.275 245.36 242.321 241.314C246.366 237.268 248.639 231.781 248.639 226.059V85.3788H250L250 58.8467Z" fill="#3F3D56"/>
<path d="M227.937 5.61256H217.629C218.103 6.77476 218.284 8.03571 218.156 9.28431C218.028 10.5329 217.594 11.7309 216.894 12.7726C216.194 13.8144 215.249 14.668 214.141 15.2582C213.033 15.8485 211.797 16.1572 210.542 16.1573H165.302C164.046 16.1572 162.811 15.8485 161.703 15.2582C160.595 14.668 159.649 13.8144 158.949 12.7726C158.249 11.7309 157.816 10.5329 157.688 9.28431C157.56 8.0357 157.741 6.77475 158.215 5.61255H148.587C144.314 5.61255 140.217 7.30989 137.195 10.3312C134.174 13.3525 132.477 17.4502 132.477 21.723V225.909C132.477 230.182 134.174 234.28 137.195 237.301C140.217 240.323 144.314 242.02 148.587 242.02H227.937C230.053 242.02 232.147 241.603 234.102 240.794C236.057 239.984 237.833 238.797 239.329 237.301C240.825 235.805 242.011 234.029 242.821 232.075C243.631 230.12 244.047 228.025 244.047 225.909V21.723C244.047 19.6074 243.631 17.5124 242.821 15.5578C242.011 13.6032 240.825 11.8272 239.329 10.3312C237.833 8.8352 236.057 7.64851 234.102 6.83889C232.147 6.02926 230.053 5.61256 227.937 5.61256Z" fill="white"/>
<path d="M192.426 227.557C185.415 227.561 178.615 225.154 173.166 220.74C167.718 216.326 163.952 210.174 162.5 203.314C161.048 196.454 161.998 189.304 165.19 183.061C168.383 176.818 173.624 171.862 180.036 169.024C186.448 166.186 193.641 165.638 200.408 167.471C207.176 169.305 213.108 173.41 217.21 179.097C221.312 184.783 223.334 191.708 222.938 198.708C222.543 205.709 219.753 212.361 215.036 217.549L221.421 224.707L218.235 226.058C213.306 228.149 208.482 226.115 205.775 224.491C201.614 226.508 197.05 227.557 192.426 227.557ZM192.426 171.433C188.527 171.434 184.68 172.327 181.178 174.042C177.676 175.758 174.613 178.252 172.223 181.332C169.832 184.413 168.178 188 167.386 191.818C166.594 195.636 166.685 199.584 167.652 203.362C168.62 207.139 170.438 210.646 172.968 213.613C175.498 216.58 178.673 218.93 182.25 220.482C185.827 222.035 189.711 222.749 193.607 222.57C197.502 222.391 201.305 221.325 204.725 219.451L206.089 218.702L207.357 219.604C208.806 220.658 210.452 221.411 212.197 221.819L208.179 217.315L209.94 215.66C212.499 213.276 214.536 210.39 215.925 207.181C217.313 203.972 218.023 200.511 218.009 197.015C218.001 190.232 215.303 183.73 210.507 178.934C205.711 174.138 199.209 171.44 192.426 171.433Z" fill="#E6E6E6"/>
<path d="M220.489 197.015C220.486 190.867 218.464 184.89 214.734 180.004C211.003 175.117 205.77 171.591 199.84 169.969C193.91 168.346 187.612 168.717 181.913 171.024C176.214 173.33 171.431 177.445 168.299 182.735C165.167 188.026 163.86 194.198 164.578 200.304C165.297 206.41 168.001 212.11 172.276 216.529C176.55 220.948 182.158 223.84 188.237 224.761C194.315 225.681 200.528 224.58 205.919 221.625C207.859 223.005 212.591 225.758 217.266 223.775L211.639 217.467C214.436 214.846 216.665 211.678 218.188 208.16C219.71 204.642 220.493 200.848 220.489 197.015Z" fill="white"/>
<path d="M198.026 191.277H177.973V193.139H198.026V191.277Z" fill="#199192"/>
<path d="M212.923 197.719H177.973V199.581H212.923V197.719Z" fill="#E6E6E6"/>
<path d="M212.888 204.16H177.973V206.023H212.888V204.16Z" fill="#E6E6E6"/>
<path d="M192.426 91.7944C185.415 91.7977 178.615 89.3908 173.166 84.9771C167.718 80.5633 163.952 74.411 162.5 67.5511C161.048 60.6912 161.998 53.5406 165.19 47.2977C168.383 41.0549 173.624 36.0991 180.036 33.2609C186.448 30.4226 193.641 29.8745 200.408 31.7084C207.176 33.5422 213.108 37.6465 217.21 43.3335C221.312 49.0205 223.334 55.9445 222.938 62.9453C222.543 69.946 219.753 76.5979 215.036 81.7863L221.421 88.9439L218.235 90.2955C213.306 92.3863 208.482 90.3518 205.775 88.7281C201.614 90.7452 197.05 91.7935 192.426 91.7944ZM192.426 35.6697C188.527 35.6709 184.68 36.5635 181.178 38.2793C177.676 39.995 174.613 42.4886 172.223 45.5694C169.832 48.6501 168.178 52.2366 167.386 56.0547C166.594 59.8728 166.685 63.8214 167.652 67.5989C168.62 71.3764 170.438 74.8827 172.968 77.8499C175.498 80.8171 178.673 83.1667 182.25 84.7191C185.827 86.2716 189.711 86.9857 193.607 86.807C197.502 86.6283 201.305 85.5616 204.725 83.6882L206.089 82.9387L207.357 83.8411C208.806 84.8951 210.452 85.6481 212.197 86.0555L208.179 81.5516L209.94 79.8965C212.499 77.5134 214.536 74.6268 215.925 71.4181C217.313 68.2094 218.023 64.748 218.009 61.2518C218.001 54.4694 215.303 47.9669 210.507 43.171C205.711 38.3751 199.209 35.6774 192.426 35.6697V35.6697Z" fill="#E6E6E6"/>
<path d="M220.489 61.2518C220.486 55.1039 218.464 49.1271 214.734 44.2406C211.003 39.354 205.77 35.8284 199.84 34.2059C193.91 32.5835 187.612 32.9541 181.913 35.2607C176.214 37.5673 171.431 41.6822 168.299 46.9725C165.167 52.2627 163.86 58.4354 164.578 64.5412C165.297 70.6469 168.001 76.3475 172.276 80.7663C176.55 85.185 182.158 88.0771 188.237 88.9978C194.315 89.9185 200.528 88.8168 205.919 85.8621C207.859 87.2423 212.591 89.9952 217.266 88.0122L211.639 81.704C214.436 79.083 216.665 75.9151 218.188 72.3969C219.71 68.8787 220.493 65.0852 220.489 61.2518Z" fill="white"/>
<path d="M198.026 55.514H177.973V57.3762H198.026V55.514Z" fill="#199192"/>
<path d="M212.923 61.9557H177.973V63.8179H212.923V61.9557Z" fill="#E6E6E6"/>
<path d="M212.888 68.3974H177.973V70.2595H212.888V68.3974Z" fill="#E6E6E6"/>
<path d="M231.297 94.4034C233.739 94.4034 235.72 92.423 235.72 89.98C235.72 87.537 233.739 85.5566 231.297 85.5566C228.854 85.5566 226.873 87.537 226.873 89.98C226.873 92.423 228.854 94.4034 231.297 94.4034Z" fill="#E6E6E6"/>
<path d="M231.297 230.166C233.739 230.166 235.72 228.186 235.72 225.743C235.72 223.3 233.739 221.32 231.297 221.32C228.854 221.32 226.873 223.3 226.873 225.743C226.873 228.186 228.854 230.166 231.297 230.166Z" fill="#E6E6E6"/>
<path d="M133.61 161.966C130.373 163.907 124.606 166.339 118.713 163.84L114.903 162.224L122.537 153.666C116.445 146.948 113.075 138.202 113.084 129.134C113.093 120.065 116.481 111.326 122.587 104.621C128.693 97.9165 137.079 93.7278 146.106 92.8726C155.134 92.0174 164.157 94.5572 171.413 99.9962C178.669 105.435 183.638 113.383 185.35 122.288C187.062 131.194 185.394 140.417 180.671 148.159C175.949 155.9 168.511 161.604 159.809 164.157C151.107 166.71 141.767 165.929 133.61 161.966H133.61Z" fill="#199192"/>
<path opacity="0.1" d="M180.326 128.944C180.325 120.559 177.185 112.477 171.524 106.292C165.862 100.106 158.09 96.2641 149.738 95.5226C150.715 95.437 151.704 95.3907 152.704 95.3907C161.599 95.3964 170.128 98.9339 176.415 105.226C182.703 111.518 186.235 120.049 186.235 128.944C186.235 137.839 182.703 146.37 176.415 152.662C170.128 158.954 161.599 162.491 152.704 162.497C151.705 162.497 150.719 162.45 149.743 162.364C158.094 161.622 165.865 157.78 171.525 151.594C177.186 145.409 180.325 137.328 180.326 128.944Z" fill="black"/>
<path d="M154.28 122.253H130.304V124.479H154.28V122.253Z" fill="white"/>
<path d="M172.091 129.955H130.304V132.181H172.091V129.955Z" fill="white"/>
<path d="M172.051 137.657H130.304V139.883H172.051V137.657Z" fill="white"/>
</g>
<defs>
<clipPath id="clip0">
<rect width="250" height="265.328" fill="white"/>
</clipPath>
</defs>
</svg>
