<svg width="130" height="180" viewBox="0 0 130 180" fill="none" xmlns="http://www.w3.org/2000/svg">
<path d="M65 83.3347C75.3018 83.3253 83.6435 74.6077 83.6333 63.8661C83.6243 53.1245 75.2646 44.4246 64.9628 44.4351C54.6632 44.4457 46.3204 53.1621 46.3306 63.9038C46.3633 74.636 54.7083 83.3206 65 83.3347ZM65 51.9665C71.3217 51.9665 76.4472 57.3103 76.4472 63.9038C76.4472 70.4961 71.3217 75.841 65 75.841C58.6772 75.841 53.5528 70.4961 53.5528 63.9038C53.5539 57.3114 58.6794 51.9677 65 51.9665Z" fill="#207279"/>
<path d="M39.9389 125.247H90.06C92.054 125.242 93.6655 123.559 93.6711 121.481C93.6711 112.971 90.7111 105.138 85.2945 99.3766C79.9365 93.7139 72.6274 90.5272 65 90.5272C57.3727 90.5272 50.0636 93.7139 44.7056 99.3766C39.2889 105.138 36.3278 112.971 36.3278 121.481C36.3334 123.559 37.946 125.242 39.9389 125.247ZM49.8695 104.649C53.8665 100.432 59.3148 98.0586 65 98.0586C70.6841 98.0586 76.1335 100.432 80.1294 104.649C83.4438 108.214 85.5709 112.794 86.1972 117.715H43.8028C44.4212 112.792 46.5495 108.207 49.8695 104.649Z" fill="#207279"/>
<path d="M111.944 12.8033H79.4444V3.76569C79.4388 1.68868 77.8251 0.00588388 75.8333 0H54.1667C52.1749 0.00588388 50.5612 1.68868 50.5556 3.76569V12.8033H18.0556C8.0855 12.8081 0.00451389 21.235 0 31.6318V161.172C0.00451389 171.568 8.0855 179.995 18.0556 180H111.944C121.914 179.995 129.995 171.568 130 161.172V31.6318C129.995 21.235 121.914 12.8081 111.944 12.8033ZM57.7778 7.53138H72.2222V22.5941H57.7778V7.53138ZM122.778 161.172C122.761 167.403 117.92 172.451 111.944 172.469H18.0556C12.0803 172.451 7.23915 167.403 7.22222 161.172V31.6318C7.23915 25.4008 12.0803 20.3524 18.0556 20.3347H50.5556V26.3598C50.5612 28.4368 52.1749 30.1196 54.1667 30.1255H75.8333C77.8251 30.1196 79.4388 28.4368 79.4444 26.3598V20.3347H111.944C117.92 20.3524 122.761 25.4008 122.778 31.6318V161.172Z" fill="#207279"/>
<path d="M104.072 152.134H25.9278C23.9338 152.134 22.3167 153.819 22.3167 155.9C22.3167 157.98 23.9338 159.665 25.9278 159.665H104.108C106.103 159.655 107.712 157.96 107.701 155.881C107.691 153.8 106.066 152.123 104.072 152.134Z" fill="#207279"/>
<path d="M43.9833 135.565C41.9893 135.565 40.3722 137.25 40.3722 139.331C40.3722 141.411 41.9893 143.096 43.9833 143.096H86.0528C88.0479 143.096 89.6639 141.411 89.6639 139.331C89.6639 137.25 88.0479 135.565 86.0528 135.565H43.9833Z" fill="#207279"/>
</svg>
