<?xml version="1.0"?>
<svg xmlns="http://www.w3.org/2000/svg" xmlns:xlink="http://www.w3.org/1999/xlink" xmlns:svgjs="http://svgjs.com/svgjs" version="1.1" width="512" height="512" x="0" y="0" viewBox="0 0 384 384" style="enable-background:new 0 0 512 512" xml:space="preserve" class=""><g>
<g xmlns="http://www.w3.org/2000/svg">
	<g>
		<g>
			<path d="M353.188,252.052c-23.521,0-46.604-3.677-68.479-10.906c-10.917-3.74-23.292-0.844-30.438,6.417l-43.167,32.594     c-50.063-26.729-80.917-57.563-107.292-107.26l31.667-42.073c8.229-8.229,11.146-20.219,7.604-31.427     c-7.25-22.021-10.938-45.104-10.938-68.583C132.146,13.823,118.333,0,101.333,0H30.812C13.812,0,0,13.823,0,30.812     C0,225.563,158.438,384,353.188,384c17,0,30.813-13.823,30.813-30.813v-70.323C384,265.875,370.188,252.052,353.188,252.052z      M362.667,353.188c0,5.229-4.25,9.479-9.479,9.479c-182.979,0-331.854-148.865-331.854-331.854c0-5.229,4.25-9.479,9.479-9.479     h70.521c5.229,0,9.479,4.25,9.479,9.479c0,25.76,4.042,51.083,11.979,75.146c1.104,3.51,0.208,7.177-3.375,10.906l-36.688,48.563     c-2.458,3.25-2.833,7.625-0.979,11.26c29.938,58.823,66.292,95.198,125.542,125.542c3.604,1.875,8,1.5,11.292-0.979     l49.667-37.635c2.563-2.521,6.313-3.375,9.667-2.25c24.146,7.979,49.479,12.021,75.271,12.021c5.229,0,9.479,4.25,9.479,9.479     V353.188z" fill="#199192" data-original="#000000" style="" class=""/>
			<path d="M198.583,212.521c1.313,0.552,2.708,0.813,4.083,0.813c2.771,0,5.5-1.083,7.542-3.125l39.542-39.542h101.917     c17.646,0,32-14.354,32-32v-85.01c0-17.646-14.354-32-32-32H224c-17.646,0-32,14.354-32,32v149.01     C192,206.979,194.604,210.875,198.583,212.521z M213.333,53.656c0-5.885,4.792-10.667,10.667-10.667h127.667     c5.875,0,10.667,4.781,10.667,10.667v85.01c0,5.885-4.792,10.667-10.667,10.667H245.333c-2.833,0-5.542,1.125-7.542,3.125     l-24.458,24.458V53.656z" fill="#199192" data-original="#000000" style="" class=""/>
		</g>
	</g>
</g>
<g xmlns="http://www.w3.org/2000/svg">
</g>
<g xmlns="http://www.w3.org/2000/svg">
</g>
<g xmlns="http://www.w3.org/2000/svg">
</g>
<g xmlns="http://www.w3.org/2000/svg">
</g>
<g xmlns="http://www.w3.org/2000/svg">
</g>
<g xmlns="http://www.w3.org/2000/svg">
</g>
<g xmlns="http://www.w3.org/2000/svg">
</g>
<g xmlns="http://www.w3.org/2000/svg">
</g>
<g xmlns="http://www.w3.org/2000/svg">
</g>
<g xmlns="http://www.w3.org/2000/svg">
</g>
<g xmlns="http://www.w3.org/2000/svg">
</g>
<g xmlns="http://www.w3.org/2000/svg">
</g>
<g xmlns="http://www.w3.org/2000/svg">
</g>
<g xmlns="http://www.w3.org/2000/svg">
</g>
<g xmlns="http://www.w3.org/2000/svg">
</g>
</g></svg>
