<svg id="icon" height="512" viewBox="0 0 128 128" width="512" xmlns="http://www.w3.org/2000/svg"><path d="m1.013 70.033a26.45 26.45 0 0 1 9.9-19.911 13.457 13.457 0 0 1 17.12-18.283 26.506 26.506 0 0 1 43.837-4.469 21.885 21.885 0 0 1 35.8 17.526c-.007.248-.043.489-.058.735a26.514 26.514 0 1 1 -23.812 46.141 26.508 26.508 0 0 1 -40.906.607 26.511 26.511 0 0 1 -41.881-22.346z" fill="#f0f5f9"/><g fill="#c1cdd3"><path d="m86.055 93.42a26.526 26.526 0 0 0 29.8-.645 26.535 26.535 0 0 1 -23.592-5 26.831 26.831 0 0 1 -6.208 5.645z"/><path d="m51.362 88.386a26.678 26.678 0 0 1 -8.457 4 26.483 26.483 0 0 0 35.538 4.445 26.557 26.557 0 0 1 -27.081-8.445z"/><path d="m42.894 92.375c-.011.011-.022.011-.034.022a.067.067 0 0 0 .045-.011z"/></g><path d="m1.011 70.039c.017-.607.061-1.206.118-1.8.016-.16.036-.318.054-.477.053-.459.116-.913.192-1.364.024-.145.047-.292.074-.437a26.172 26.172 0 0 1 .883-3.461c.025-.077.053-.152.079-.228q.254-.748.55-1.475c.034-.082.067-.165.1-.248a26.3 26.3 0 0 1 1.622-3.232l.008-.012c.3-.5.617-1 .947-1.479.017-.025.032-.051.049-.076v.008a26.676 26.676 0 0 1 5.225-5.631 13.459 13.459 0 0 1 11.024-19.171 13.385 13.385 0 0 0 -2.556 15.169 26.506 26.506 0 0 0 -5.158 35.817 26.5 26.5 0 0 0 32.65 1.476 26.5 26.5 0 0 0 40.905-.611 26.508 26.508 0 0 0 38.539-5.59 26.524 26.524 0 0 1 -42.516 14.558 26.5 26.5 0 0 1 -40.905.6l-.034.022c-.095.068-.2.126-.294.193-.468.326-.941.646-1.431.941a26.239 26.239 0 0 1 -14.377 3.756 26.507 26.507 0 0 1 -25.748-27.248z" fill="#d9e2e9"/><path d="m63.126 102.726c-.27 0-.537 0-.808-.011a27.573 27.573 0 0 1 -19.585-9.007 27.513 27.513 0 0 1 -42.72-23.7 27.478 27.478 0 0 1 9.681-20.174 14.447 14.447 0 0 1 3.46-15.987 14.409 14.409 0 0 1 14.416-3.238 27.506 27.506 0 0 1 44.43-4.618 22.893 22.893 0 0 1 36.67 18.91 27.514 27.514 0 1 1 -24.717 48.257 27.277 27.277 0 0 1 -20.827 9.568zm-20.226-11.346a1 1 0 0 1 .763.352 25.561 25.561 0 0 0 18.716 8.983 25.262 25.262 0 0 0 20.649-9.568 1 1 0 0 1 1.407-.147 25.264 25.264 0 0 0 15.327 5.677c.245.008.491.011.735.011a25.514 25.514 0 0 0 6.85-50.088 1 1 0 0 1 -.73-1.028c.007-.113.019-.225.029-.338s.025-.24.028-.362a20.885 20.885 0 0 0 -34.168-16.73 1 1 0 0 1 -1.406-.134 25.507 25.507 0 0 0 -42.183 4.3 1 1 0 0 1 -1.249.461 12.462 12.462 0 0 0 -15.85 16.924 1 1 0 0 1 -.277 1.207 25.508 25.508 0 0 0 15.249 45.389 25.2 25.2 0 0 0 15.526-4.724 1 1 0 0 1 .584-.185z" fill="#2f3a5a"/><path d="m126.99 72.924h-.029a1 1 0 0 1 -.972-1.028 25.54 25.54 0 0 0 -24.777-26.229 1 1 0 0 1 -.972-1.028.987.987 0 0 1 1.029-.972 27.545 27.545 0 0 1 26.72 28.285 1 1 0 0 1 -.999.972z" fill="#2f3a5a"/><path d="m26.763 98.289h-.03a27.518 27.518 0 0 1 -5.091-54.389 1 1 0 0 1 .425 1.955 25.517 25.517 0 0 0 4.723 50.434 1 1 0 0 1 -.027 2z" fill="#2f3a5a"/><path d="m72.708 91.17h32.574v16.916h-32.574z" fill="#84879c" transform="matrix(-.707 -.707 .707 -.707 81.477 233.005)"/><path d="m94.531 118.126a1 1 0 0 1 -.707-.293l-23.033-23.033a1 1 0 0 1 0-1.414l11.962-11.962a1 1 0 0 1 1.414 0l23.033 23.033a1 1 0 0 1 0 1.414l-11.962 11.962a1 1 0 0 1 -.707.293zm-21.619-24.033 21.619 21.619 10.548-10.548-21.619-21.619z" fill="#2f3a5a"/><path d="m100.425 111.231-23.033-23.033-22.614-22.614" fill="#84879c"/><path d="m100.426 112.231a.993.993 0 0 1 -.707-.293l-45.648-45.647a1 1 0 0 1 1.414-1.414l45.648 45.647a1 1 0 0 1 -.707 1.707z" fill="#2f3a5a"/><path d="m75.89 98.484 11.961-11.962" fill="#84879c"/><path d="m75.89 99.484a1 1 0 0 1 -.707-1.707l11.962-11.962a1 1 0 1 1 1.414 1.414l-11.959 11.962a1 1 0 0 1 -.71.293z" fill="#2f3a5a"/><path d="m80.64 103.234 11.961-11.962" fill="#84879c"/><path d="m80.64 104.234a1 1 0 0 1 -.707-1.707l11.967-11.962a1 1 0 1 1 1.414 1.414l-11.967 11.962a1 1 0 0 1 -.707.293z" fill="#2f3a5a"/><path d="m85.39 107.984 11.961-11.962" fill="#84879c"/><path d="m85.39 108.984a1 1 0 0 1 -.707-1.707l11.962-11.962a1 1 0 1 1 1.414 1.414l-11.959 11.962a1 1 0 0 1 -.71.293z" fill="#2f3a5a"/><path d="m90.14 112.734 11.961-11.962" fill="#84879c"/><path d="m90.14 113.734a1 1 0 0 1 -.707-1.707l11.967-11.962a1 1 0 1 1 1.414 1.414l-11.967 11.962a1 1 0 0 1 -.707.293z" fill="#2f3a5a"/><path d="m27.417 45.878h32.574v16.916h-32.574z" fill="#84879c" transform="matrix(-.707 -.707 .707 -.707 36.185 123.661)"/><path d="m49.239 72.834a1 1 0 0 1 -.707-.293l-23.032-23.033a1 1 0 0 1 0-1.414l11.961-11.962a1 1 0 0 1 1.414 0l23.033 23.033a1 1 0 0 1 0 1.414l-11.962 11.962a1 1 0 0 1 -.707.293zm-21.619-24.034 21.619 21.62 10.548-10.548-21.619-21.619z" fill="#2f3a5a"/><path d="m55.134 65.94-23.034-23.034" fill="#84879c"/><path d="m55.134 66.939a.993.993 0 0 1 -.707-.293l-23.033-23.033a1 1 0 0 1 1.414-1.413l23.033 23.032a1 1 0 0 1 -.707 1.707z" fill="#2f3a5a"/><path d="m30.598 53.192 11.961-11.961" fill="#84879c"/><path d="m30.6 54.192a1 1 0 0 1 -.707-1.707l11.96-11.962a1 1 0 0 1 1.414 1.415l-11.962 11.962a1 1 0 0 1 -.705.292z" fill="#2f3a5a"/><path d="m35.348 57.942 11.961-11.961" fill="#84879c"/><path d="m35.348 58.942a1 1 0 0 1 -.707-1.707l11.959-11.962a1 1 0 0 1 1.414 1.415l-11.959 11.961a1 1 0 0 1 -.707.293z" fill="#2f3a5a"/><path d="m40.098 62.692 11.961-11.961" fill="#84879c"/><path d="m40.1 63.692a1 1 0 0 1 -.707-1.707l11.96-11.962a1 1 0 0 1 1.414 1.415l-11.962 11.962a1 1 0 0 1 -.705.292z" fill="#2f3a5a"/><path d="m44.848 67.442 11.961-11.961" fill="#84879c"/><path d="m44.848 68.442a1 1 0 0 1 -.707-1.707l11.959-11.962a1 1 0 0 1 1.414 1.415l-11.959 11.961a1 1 0 0 1 -.707.293z" fill="#2f3a5a"/><path d="m55.496 57.46h21.706v39.044h-21.706z" fill="#a9ddc7" transform="matrix(-.707 -.707 .707 -.707 58.831 178.333)"/><path d="m44.871 83.115 27.612-27.612 15.348 15.348-2.322 2.322-13.069-13.069-25.29 25.29z" fill="#8ccfb5"/><path d="m60.22 99.461a1 1 0 0 1 -.707-.293l-15.349-15.349a1 1 0 0 1 0-1.414l27.608-27.605a1 1 0 0 1 1.415 0l15.348 15.346a1 1 0 0 1 0 1.414l-27.608 27.608a1 1 0 0 1 -.707.293zm-13.935-16.349 13.935 13.935 26.194-26.194-13.935-13.935z" fill="#2f3a5a"/><path d="m46.57 89.646h6.447v7.785h-6.447z" fill="#a9ddc7" transform="matrix(-.707 -.707 .707 -.707 18.86 194.89)"/><path d="m49.32 99.57a1 1 0 0 1 -.707-.293l-4.558-4.558a1 1 0 0 1 0-1.414l5.5-5.505a1.029 1.029 0 0 1 1.414 0l4.558 4.558a1 1 0 0 1 0 1.414l-5.5 5.5a1 1 0 0 1 -.707.298zm-3.144-5.558 3.144 3.144 4.09-4.091-3.144-3.144z" fill="#2f3a5a"/><path d="m49.839 114.151a14.637 14.637 0 0 0 -20.658-20.659z" fill="#a9ddc7"/><path d="m29.186 93.492a14.629 14.629 0 0 1 24.26 9.92 14.623 14.623 0 0 0 -20.818-6.478z" fill="#8ccfb5"/><path d="m49.839 115.15a1 1 0 0 1 -.707-.293l-20.658-20.657a1 1 0 0 1 .047-1.458 15.637 15.637 0 0 1 22.069 22.07 1 1 0 0 1 -.719.338zm-19.167-21.582 19.091 19.092a13.637 13.637 0 0 0 -19.091-19.092z" fill="#2f3a5a"/><path d="m49.839 115.15a1 1 0 0 1 -.707-.293l-20.658-20.657a1 1 0 0 1 .047-1.458 15.637 15.637 0 0 1 22.069 22.07 1 1 0 0 1 -.719.338zm-19.167-21.582 19.091 19.092a13.637 13.637 0 0 0 -19.091-19.092z" fill="#2f3a5a"/><path d="m39.409 103.923-5.745 5.744" fill="#e8c79c"/><path d="m33.664 110.667a1 1 0 0 1 -.707-1.707l5.744-5.744a1 1 0 0 1 1.414 1.414l-5.744 5.744a1 1 0 0 1 -.707.293z" fill="#2f3a5a"/><path d="m31.7 111.636a2.56 2.56 0 1 0 0-3.62 2.561 2.561 0 0 0 0 3.62z" fill="#84879c"/><path d="m33.506 113.384a3.558 3.558 0 1 1 2.517-1.041 3.552 3.552 0 0 1 -2.517 1.041zm0-5.117a1.559 1.559 0 1 0 1.1.456 1.554 1.554 0 0 0 -1.1-.456z" fill="#2f3a5a"/><path d="m77.455 57.59h10.026v6.547h-10.026z" fill="#84879c" transform="matrix(-.707 -.707 .707 -.707 97.745 162.214)"/><path d="m83.7 67.723a1 1 0 0 1 -.707-.293l-7.093-7.09a1 1 0 0 1 0-1.414l4.63-4.629a1 1 0 0 1 1.414 0l7.089 7.09a1 1 0 0 1 0 1.414l-4.628 4.629a1 1 0 0 1 -.705.293zm-5.676-8.09 5.676 5.676 3.215-3.215-5.675-5.676z" fill="#2f3a5a"/></svg>