<svg width="208" height="208" viewBox="0 0 208 208" fill="none" xmlns="http://www.w3.org/2000/svg">
<g filter="url(#filter0_d)">
<path d="M104 0C48.861 0 4 44.861 4 99.9998C4 155.139 48.861 200 104 200C159.139 200 204 155.139 204 99.9998C204 44.861 159.139 0 104 0ZM104 191.304C53.652 191.304 12.6955 150.348 12.6955 99.9998C12.6955 49.652 53.652 8.69551 104 8.69551C154.348 8.69551 195.304 49.652 195.304 99.9998C195.304 150.348 154.348 191.304 104 191.304Z" fill="#207279"/>
<path d="M103.522 95.6523C72.3565 95.6523 47 121.009 47 152.174C47 154.574 48.948 156.522 51.348 156.522C53.748 156.522 55.6959 154.574 55.6959 152.174C55.6959 125.8 77.1479 104.348 103.522 104.348C129.896 104.348 151.348 125.8 151.348 152.174C151.348 154.574 153.296 156.522 155.696 156.522C158.096 156.522 160.044 154.574 160.044 152.174C160.044 121.009 134.687 95.6523 103.522 95.6523Z" fill="#207279"/>
<path d="M104.435 26.0869C87.6524 26.0869 74 39.739 74 56.5218C74 73.3047 87.652 86.9567 104.435 86.9567C121.218 86.9567 134.87 73.3043 134.87 56.5218C134.87 39.7394 121.218 26.0869 104.435 26.0869ZM104.435 78.2608C92.4524 78.2608 82.6959 68.5043 82.6959 56.5218C82.6959 44.5394 92.4524 34.7829 104.435 34.7829C116.417 34.7829 126.174 44.5394 126.174 56.5218C126.174 68.5043 116.418 78.2608 104.435 78.2608Z" fill="#207279"/>
</g>
<defs>
<filter id="filter0_d" x="0" y="0" width="208" height="208" filterUnits="userSpaceOnUse" color-interpolation-filters="sRGB">
<feFlood flood-opacity="0" result="BackgroundImageFix"/>
<feColorMatrix in="SourceAlpha" type="matrix" values="0 0 0 0 0 0 0 0 0 0 0 0 0 0 0 0 0 0 127 0"/>
<feOffset dy="4"/>
<feGaussianBlur stdDeviation="2"/>
<feColorMatrix type="matrix" values="0 0 0 0 0 0 0 0 0 0 0 0 0 0 0 0 0 0 0.25 0"/>
<feBlend mode="normal" in2="BackgroundImageFix" result="effect1_dropShadow"/>
<feBlend mode="normal" in="SourceGraphic" in2="effect1_dropShadow" result="shape"/>
</filter>
</defs>
</svg>
